<?xml version="1.0" encoding="utf-8"?>
<!-- Generator: Adobe Illustrator 23.0.0, SVG Export Plug-In . SVG Version: 6.00 Build 0)  -->
<svg version="1.1" id="Layer_1" xmlns="http://www.w3.org/2000/svg" xmlns:xlink="http://www.w3.org/1999/xlink" x="0px" y="0px"
	 viewBox="0 0 160 34" style="enable-background:new 0 0 160 34;" xml:space="preserve">
<style type="text/css">
	.st0{clip-path:url(#SVGID_2_);}
	.st1{fill:#C4C4C4;}
	.st2{fill-rule:evenodd;clip-rule:evenodd;fill:#C4C4C4;}
	.st3{fill:#FEFEFE;}
	.st4{fill:#FFFFFF;}
</style>
<path class="st1" d="M92,32h2.9v-4l1.5-1.6l4,5.5h3.4l-5.5-7.5l5.3-5.5h-3.4l-5.3,5.7V19H92V32z M82.1,25.6v-4h2.2
	c1.4,0,2.3,0.7,2.3,2c0,1.1-0.8,2-2.3,2H82.1z M79.3,32h2.9v-3.9h2.2c2.9,0,5.2-1.6,5.2-4.6c0-2.7-1.9-4.5-5-4.5h-5.3V32z
	 M68.2,26.6l1.7-4.2l1.7,4.2H68.2z M63.1,32H66l1.2-2.9h5.5l1.2,2.9h3l-5.6-13.1h-2.6L63.1,32z M49.9,32h2.9V21.6h5.1V32h2.9V19
	H49.9V32z M95.9,12.8c-2.3,0-3.9-1.9-3.9-4.1c0-2.3,1.6-4.1,3.9-4.1c2.3,0,3.9,1.9,3.9,4.1C99.8,11,98.2,12.8,95.9,12.8z M95.9,15.4
	c4,0,6.9-3,6.9-6.7c0-3.7-2.9-6.7-6.9-6.7c-4,0-6.9,3-6.9,6.7C89,12.4,91.9,15.4,95.9,15.4z M80.2,15.2h2.9V4.9h4V2.2H76.3v2.6h4
	V15.2z M64.4,15.2h9.9v-2.5h-7V9.9h6.1V7.4h-6.1V4.8h7V2.2h-9.8V15.2z M51.6,2.2v2.7c0,7-0.9,8-2.4,8c-0.2,0-0.3,0-0.4,0l-0.2,2.4
	c0.4,0.1,1,0.2,1.5,0.2c3,0,4.2-1.9,4.2-9.6v-1h3.7v10.4h2.9v-13H51.6z"/>
</svg>
