<?xml version="1.0" encoding="utf-8"?>
<!-- Generator: Adobe Illustrator 23.0.0, SVG Export Plug-In . SVG Version: 6.00 Build 0)  -->
<svg version="1.1" id="Layer_1" xmlns="http://www.w3.org/2000/svg" xmlns:xlink="http://www.w3.org/1999/xlink" x="0px" y="0px"
	 viewBox="0 0 160 34" style="enable-background:new 0 0 160 34;" xml:space="preserve">
<style type="text/css">
	.st0{clip-path:url(#SVGID_2_);}
	.st1{fill:#C4C4C4;}
	.st2{fill-rule:evenodd;clip-rule:evenodd;fill:#C4C4C4;}
	.st3{fill:#FEFEFE;}
	.st4{fill:#FFFFFF;}
</style>
<g>
	<path class="st1" d="M123.9,10.4c0,5.3,0,10.5,0,15.7c-0.7,0-1.3,0-2,0c0-4.4,0-8.9,0-13.3c0,0-0.1,0-0.1,0c-0.4,0.7-0.8,1.4-1.2,2
		c-2.1,3.6-4.2,7.2-6.2,10.8c-0.2,0.3-0.4,0.5-0.8,0.5c-0.7,0-1.4,0-2.1,0c0-5.3,0-10.5,0-15.7c0.7,0,1.4,0,2.1,0
		c0,4.4,0,8.8,0,13.2c0,0,0.1,0,0.1,0c0.4-0.8,0.9-1.5,1.3-2.3c2-3.5,4.1-7.1,6.1-10.6c0.2-0.3,0.3-0.4,0.7-0.4
		C122.5,10.5,123.2,10.4,123.9,10.4z"/>
	<path class="st1" d="M36.8,10.1c1.8,0,3.5,0.5,4.9,1.7c1.4,1.1,2.1,2.7,2.4,4.4c0.4,2,0.3,3.9-0.5,5.8c-1,2.6-2.9,4.2-5.7,4.6
		c-2,0.3-3.9,0-5.6-1.2c-1.7-1.2-2.6-3-3-5.1c-0.3-1.7-0.3-3.3,0.2-4.9c0.9-2.9,2.8-4.6,5.9-5.1c0.2,0,0.4-0.1,0.6-0.1
		C36.4,10.1,36.6,10.1,36.8,10.1z M36.8,24.8c2.4,0.1,4.2-1.4,5-3.4c0.6-1.7,0.7-3.5,0.2-5.3c-0.6-2.3-2-3.8-4.4-4.1
		c-2.2-0.3-4.3,0.5-5.3,2.6c-1.2,2.3-1.2,4.7-0.2,7.1C32.9,23.7,34.5,24.7,36.8,24.8z"/>
	<path class="st1" d="M95.2,18.2c-0.1,2.1-0.5,4.2-1.9,5.9c-1.1,1.4-2.6,2.2-4.4,2.4c-1.3,0.2-2.6,0.1-3.9-0.3
		c-1.9-0.6-3.3-1.8-4.1-3.6c-1.2-2.8-1.3-5.6-0.1-8.4c1-2.3,2.9-3.6,5.4-4c1.6-0.2,3.1-0.1,4.6,0.5c2.2,1,3.4,2.7,4,5
		C95.1,16.5,95.1,17.4,95.2,18.2z M87.6,24.8c2.2,0.1,4.1-1.3,4.9-3.3c0.6-1.5,0.7-3.1,0.5-4.8c-0.4-2.5-2-4.5-4.6-4.8
		c-2.1-0.2-4.1,0.5-5.2,2.4c-1.2,2.1-1.3,4.4-0.6,6.7C83.3,23.4,85.2,24.8,87.6,24.8z"/>
	<path class="st1" d="M2,10.5c4.2,0,8.3,0,12.4,0c0,0.2,0,0.3,0,0.5c0,4.9,0,9.9,0,14.8c0,0.4-0.1,0.5-0.5,0.5c-0.5,0-1.1,0-1.6,0
		c0-4.7,0-9.3,0-13.9c-2.8,0-5.5,0-8.3,0c0,4.6,0,9.3,0,13.9c-0.7,0-1.3,0-2,0C2,20.9,2,15.7,2,10.5z"/>
	<path class="st1" d="M96.7,10.5c0.7,0,1.3,0,2,0c0,2.2,0,4.3,0,6.5c2.8,0,5.5,0,8.3,0c0-2.2,0-4.3,0-6.5c0.7,0,1.4,0,2.1,0
		c0,5.2,0,10.4,0,15.7c-0.6,0-1.3,0-1.9,0c-0.1,0-0.1-0.2-0.2-0.3c0-0.9,0-1.7,0-2.6c0-1.5,0-2.9,0-4.4c-2.8,0-5.5,0-8.3,0
		c0,2.4,0,4.9,0,7.3c-0.7,0-1.3,0-2,0C96.7,20.9,96.7,15.7,96.7,10.5z"/>
	<path class="st1" d="M139.6,15.8c-0.7,0-1.3,0-2,0c-0.1-0.4-0.2-0.7-0.3-1.1c-0.7-1.8-2-2.7-3.9-2.8c-2.9-0.2-4.8,1.7-5.4,4
		c-0.5,2.1-0.5,4.2,0.5,6.2c0.8,1.7,2.3,2.6,4.2,2.7c1.1,0.1,2.2-0.1,3.1-0.8c1.1-0.8,1.6-1.9,1.8-3.2c0-0.1,0-0.2,0-0.2
		c0-0.1,0-0.2,0.1-0.3c0.7,0,1.3,0,2,0c-0.1,1.2-0.4,2.3-1,3.3c-1,1.7-2.6,2.7-4.6,2.9c-1.7,0.2-3.4,0.1-4.9-0.8
		c-1.8-1-2.8-2.6-3.3-4.5c-0.6-2.4-0.5-4.7,0.5-7c1.1-2.4,3-3.7,5.6-4c2.3-0.3,4.4,0.3,6.1,2C139.1,13.1,139.6,14.3,139.6,15.8z"/>
	<path class="st1" d="M54.6,26.2c0.4-0.9,0.7-1.7,1-2.5c1.7-4.3,3.4-8.6,5-12.8c0.1-0.3,0.3-0.4,0.6-0.4c0.5,0,1.1,0,1.6,0
		c0.3,0,0.4,0.1,0.5,0.3c1.2,3.2,2.5,6.4,3.7,9.6c0.7,1.8,1.4,3.7,2.1,5.5c0,0.1,0.1,0.2,0.1,0.4c-0.7,0-1.4,0-2.1,0
		c-0.1,0-0.2-0.1-0.2-0.3c-0.5-1.4-1-2.8-1.5-4.2c-0.1-0.3-0.2-0.4-0.5-0.3c-2,0-3.9,0-5.9,0c-0.3,0-0.4,0.1-0.5,0.4
		c-0.5,1.4-1,2.7-1.5,4.1c-0.1,0.3-0.2,0.4-0.5,0.4C55.8,26.2,55.2,26.2,54.6,26.2z M61.9,12.6C61.9,12.6,61.9,12.6,61.9,12.6
		c-1,2.4-1.9,4.7-2.8,7.1c1.8,0,3.6,0,5.4,0C63.7,17.3,62.8,14.9,61.9,12.6z"/>
	<path class="st1" d="M18.8,18.8c0,0.2,0,0.4,0,0.6c0,2.1,0,4.2,0,6.4c0,0.3-0.1,0.4-0.4,0.4c-0.5,0-1.1,0-1.6,0
		c0-5.3,0-10.5,0-15.7c0.1,0,0.2,0,0.3,0c2.1,0,4.1,0,6.2,0c0.9,0,1.9,0.1,2.8,0.4c1.5,0.4,2.4,1.6,2.4,3.2c0,0.8,0,1.6-0.2,2.3
		c-0.4,1.4-1.5,2.1-2.9,2.4c-0.7,0.1-1.4,0.2-2.1,0.2C21.8,18.8,20.4,18.8,18.8,18.8z M18.9,17c0.1,0,0.1,0.1,0.1,0.1
		c1.8,0,3.7,0,5.5-0.1c1.1-0.1,1.8-0.7,1.9-1.8c0.2-1.6-0.3-2.9-2.3-2.9c-1.6,0-3.2,0-4.8-0.1c-0.1,0-0.2,0-0.4,0
		C18.9,13.9,18.9,15.4,18.9,17z"/>
	<path class="st1" d="M144.8,12.3c-1.8,0-3.5,0-5.3,0c0-0.6,0-1.2,0-1.8c4.2,0,8.4,0,12.6,0c0,0.6,0,1.2,0,1.8c-1.7,0-3.5,0-5.3,0
		c0,0.2,0,0.4,0,0.5c0,4.3,0,8.7,0,13c0,0.4-0.1,0.5-0.5,0.5c-0.4,0-0.8,0-1.2,0c-0.3,0-0.4-0.1-0.4-0.4c0-2.9,0-5.9,0-8.8
		C144.8,15.4,144.8,13.8,144.8,12.3z"/>
	<path class="st1" d="M49.3,12.3c-1.8,0-3.5,0-5.3,0c0-0.6,0-1.2,0-1.8c4.2,0,8.4,0,12.6,0c0,0.6,0,1.2,0,1.8c-1.7,0-3.5,0-5.2,0
		c0,4.7,0,9.3,0,13.9c-0.7,0-1.4,0-2.1,0C49.3,21.6,49.3,16.9,49.3,12.3z"/>
	<path class="st1" d="M72.2,12.2c0,4.5,0,8.9,0,13.3c0,0.8,0.1,0.7-0.7,0.7c-0.4,0-0.7,0-1.1,0c-0.3,0-0.3-0.1-0.3-0.3
		c0-1.2,0-2.4,0-3.6c0-3.7,0-7.4,0-11.2c0-0.7,0-0.7,0.7-0.7c3.1,0,6.1,0,9.2,0c0.2,0,0.3,0,0.5,0c0,0.6,0,1.2,0,1.8
		C77.7,12.2,75,12.2,72.2,12.2z"/>
	<path class="st1" d="M156.5,10.5c1.5,0,2.5,1.1,2.5,2.5c0,1.3-1,2.5-2.5,2.5c-1.6,0-2.5-1.1-2.5-2.6
		C153.9,11.6,155.1,10.5,156.5,10.5z"/>
	<path class="st1" d="M159,23.7c0,1.4-1.1,2.5-2.5,2.5c-1.4,0-2.6-1.1-2.6-2.5c0-1.4,1.1-2.5,2.6-2.5C157.9,21.2,159,22.3,159,23.7z
		"/>
	<path class="st4" d="M36.8,24.8c-2.3,0-3.9-1.1-4.8-3.1c-1-2.4-0.9-4.8,0.2-7.1c1.1-2.1,3.2-2.9,5.3-2.6c2.4,0.3,3.8,1.8,4.4,4.1
		c0.5,1.8,0.4,3.6-0.2,5.3C41,23.4,39.2,24.8,36.8,24.8z"/>
	<path class="st4" d="M87.6,24.8c-2.4,0-4.3-1.4-5-3.7c-0.7-2.3-0.6-4.6,0.6-6.7c1.1-1.9,3.1-2.7,5.2-2.4c2.6,0.3,4.2,2.3,4.6,4.8
		c0.3,1.6,0.2,3.2-0.5,4.8C91.7,23.5,89.9,24.8,87.6,24.8z"/>
	<path class="st4" d="M61.9,12.6c0.9,2.4,1.7,4.7,2.6,7.1c-1.8,0-3.6,0-5.4,0C60.1,17.3,61,14.9,61.9,12.6
		C61.9,12.6,61.9,12.6,61.9,12.6z"/>
	<path class="st4" d="M18.9,17c0-1.6,0-3.2,0-4.8c0.1,0,0.2,0,0.4,0c1.6,0,3.2,0,4.8,0.1c2.1,0,2.5,1.3,2.3,2.9
		c-0.1,1.1-0.7,1.8-1.9,1.8c-1.8,0.1-3.7,0.1-5.5,0.1C18.9,17.1,18.9,17.1,18.9,17z"/>
</g>
</svg>
