<?xml version="1.0" encoding="utf-8"?>
<!-- Generator: Adobe Illustrator 23.0.0, SVG Export Plug-In . SVG Version: 6.00 Build 0)  -->
<svg version="1.1" id="Layer_1" xmlns="http://www.w3.org/2000/svg" xmlns:xlink="http://www.w3.org/1999/xlink" x="0px" y="0px"
	 viewBox="0 0 160 34" style="enable-background:new 0 0 160 34;" xml:space="preserve">
<style type="text/css">
	.st0{clip-path:url(#SVGID_2_);}
	.st1{fill:#C4C4C4;}
	.st2{fill-rule:evenodd;clip-rule:evenodd;fill:#C4C4C4;}
	.st3{fill:#FEFEFE;}
	.st4{fill:#FFFFFF;}
</style>
<path class="st2" d="M43.7,17.9l1.6-8.8c0.8,0,2.1,5.3,3.4,4.3c0.7-0.5,3.5-4.4,4-4.3c0.1,0.9-0.6,3.5-0.7,4.6
	c-0.2,1.2-0.4,2.4-0.6,3.5c-0.1,0.6-0.2,0.7,0.4,0.8c0.6,0.1,1.5,0.1,2.1,0.2c0.9,0.1,1.2,0,1.3-1c0.1-1.7,0.6-3,0.8-4.6
	c0.2-1.5,1.2-7.9,1.6-9.3c0.3-1.1-0.4-0.9-1.2-0.9c-0.8,0.1-1.4-0.1-2.1-0.1c-0.8,0-2,1.7-2.5,2.3c-2.4,2.7-2.2,4.1-4.1-0.1
	c-0.6-1.3-0.8-2.3-2.3-2.2c-1,0.1-1,0.1-2,0c-1-0.1-0.9,0.8-1,1.5C42.3,5,41.8,7,41.6,8.3c-0.3,1.4-0.5,3.2-0.7,4.7
	c-0.2,1.1-0.8,3.9-0.8,4.7c0,0.8,1.1,0.4,1.7,0.4C42.2,18,43.4,18.2,43.7,17.9"/>
<path class="st2" d="M67.8,1.8c-2.1-0.2-4.2,0.4-5.9,1.5c-2,1.3-2.7,2.5-3.6,4.7c-1.7,4.3-0.6,9.6,4.7,10.3
	C73.2,19.6,77.3,2.9,67.8,1.8 M66.6,5.6c4.4,0.2,2.7,9.6-2.4,8.8C59.8,13.7,61.2,5.3,66.6,5.6z"/>
<path class="st2" d="M108.1,1.7c-4.5-0.4-7.8,2.3-9.3,6.4c-0.6,1.6-1,5.2-0.1,6.7c1.1,2,2.7,3.1,5,3.4c4.3,0.4,8.1-2.3,9.3-6.4
	c0.8-2.8,1.1-3.9,0.1-6.7C112.3,2.8,110.4,1.9,108.1,1.7 M107,5.5c4.6,0,2.9,9.5-2.1,8.8C100.4,13.8,101.7,5.4,107,5.5z"/>
<path class="st2" d="M98.5,2.1c-1,0.1-2.1,0.1-3.1,0.1c-1,0-2.2,0.1-3.2,0.1c-0.6,0-1.1-0.1-1.7-0.1c-0.5,0-1,0.1-1.5,0.1
	c-1.9-0.1-1.3,0.5-1.7,2.2c-0.4,2.1,0.1,1.4,1.8,1.5c2.1,0.1,2-0.6,1.7,1.6c-0.3,2.4-0.7,4.8-1.1,7.2c-0.1,0.6-0.2,1.2-0.3,1.8
	c-0.3,1.2-0.4,1.3,0.1,1.4c0.2,0,3.3,0.1,3.3,0c0.3-0.1,0.6-2.8,0.7-3.3c0.2-1.2,0.3-2.5,0.6-3.7c0.3-1.2,0.4-2.4,0.6-3.5
	c0.5-2.2,0.2-1.4,2.1-1.6c1.5-0.1,2.1,0.7,2.4-1.2C99.3,3.5,100.1,2,98.5,2.1"/>
<path class="st2" d="M78.7,2.1c-3.9-0.2-3.2-0.5-3.8,3.2c-0.4,2.3-0.7,4.6-1.1,6.9c-0.2,1.2-0.4,2.2-0.6,3.4
	c-0.1,1.1-1.1,2.4,0.6,2.3c1.1-0.1,2-0.1,3.1,0c0.9,0,2-0.1,3-0.1c3.7,0,3.3,0.9,3.8-3.1c0.2-1.2-1.4-0.6-2.3-0.6
	c-5,0.1-4.3,0.4-3.8-2.1c0.2-1.2,0.4-2.2,0.6-3.4c0.2-1.2,0.4-2.3,0.6-3.5c0.1-0.6,0.1-1.2,0.3-1.8C79.2,2.7,79.5,2.1,78.7,2.1"/>
<path class="st2" d="M38,32.1l2.3-0.1c0.2-0.3,0.8-5,1-5.7c0.6,0.1,1.4,3.4,2.3,2.7c0.5-0.4,2.2-2.7,2.6-2.8L45.2,32
	c0.4,0.1,1.9,0.3,2.2,0.2c0.4-0.1,0.5-1.7,0.5-2.2c0.5-2.4,0.7-4.8,1.3-7.4c0.2-0.9-1.1-0.5-1.8-0.6c-1-0.1-0.9,0.2-1.5,0.9
	c-0.4,0.5-0.8,0.9-1.2,1.4c-0.4,0.5-0.8,1.3-1.2,0.4c-0.3-0.6-0.6-1.1-0.8-1.6c-0.3-0.7-0.5-1.2-1.3-1.1c-0.6,0-1.8-0.1-2,0.4
	C39.2,23.5,38,31.3,38,32.1"/>
<path class="st2" d="M79,30.8c0.5,0.3-0.1,1.2,2,1l0.4-2.5c-0.9-0.2-0.9-0.7-0.6-1.5l0.9-0.1l0.3-2c-0.9-0.1-4.4,0.1-4.8-0.2
	c-0.7-0.4-0.3-1.4,0.4-1.7c1.1-0.5,1.3-0.1,1.5,0.8l2.2,0c0.7-4.2-4.9-3.5-6.3-1.6c-0.5,0.7-1,2.1-0.6,3c0.3,0.7,0.8,0.5,0.1,1
	c-1.3,0.9-1.5,3.1-0.9,4.1c0.6,0.9,1.9,0.9,2.9,0.9C77.9,32,78.1,31.3,79,30.8 M78.5,27.8c0.1,1.7-2.1,2.5-2.6,1.6
	C75,27.9,77.7,27.6,78.5,27.8z"/>
<path class="st2" d="M108.2,25.4l-3,0.1l0.5-3.8c-0.3-0.2-1,0-1.4-0.1c-1.5-0.1-1-0.1-1.6,3.6c-0.2,1.2-1,5.6-1,6.5l2.4,0l0.6-3.8
	l3,0c0.1,0.2-0.5,3.3-0.5,3.7c0.5,0.1,1.6,0.2,2.1,0.1c0.5-0.1,0.5-1.6,0.6-2c0.3-1.6,0.6-3.2,0.8-4.9c0.1-0.7,0.3-1.7,0.4-2.4
	c0.3-1.2-0.5-0.7-1.5-0.8c-1.2-0.1-0.9,0.3-1.1,1.5C108.6,23.5,108.5,25,108.2,25.4"/>
<path class="st2" d="M49,32l6.8,0c0.2-0.2,0.4-1.9,0.5-2.3l-4.6-0.2c0,0,0.3-1.3,0.4-1.4c0.6,0,3.8,0,4.1,0l0.3-2.3l-4,0l0.3-1.3
	c0.2-0.1,2.3-0.1,2.7-0.1c1.8,0,1.4,0.3,1.8-1.4c0.3-1.6-0.3-1-1.7-1c-1,0-3.3,0.1-4.2,0c-0.8-0.1-0.7,0.1-0.8,0.8
	C50.2,24,48.9,31.6,49,32"/>
<path class="st2" d="M63.6,30.4l0.3,1.6c0.1,0,2.1,0.1,2.3,0c0.4-0.2,0-1.6-0.1-2c-0.3-1.3-0.6-2.7-0.9-4c-0.1-0.6-0.6-3.8-1-4
	c-0.2-0.1-2-0.1-2.3,0c-0.4,0.1-0.9,1.3-1.1,1.7c-1.3,2.4-2.7,4.9-4.1,7.4c-0.7,1.3,0.1,0.9,0.9,0.9c1.2,0,1.1,0.3,1.7-1
	c0.4-1,0.7-0.7,1.8-0.7C62,30.2,62.8,30.2,63.6,30.4 M62.9,27.8c-0.2,0.1-1.9,0.3-1.8-0.2c0-0.2,0.7-1.4,0.8-1.7
	C63.1,23.5,63,27.6,62.9,27.8z"/>
<path class="st2" d="M98.8,21.4c-1.9,0-3.7,1-4.2,3c-0.2,1.1-0.3,2,0.7,2.7c1.3,1,1.7,0.5,3,0.9c1,0.3,0.7,1.5-0.8,1.6
	c-1.7,0.2-2.2-1-2.6-0.9c-0.1,0-1.7,1.4-1.3,1.9c0.5,0.7,1.5,1.4,2.4,1.4c5.2,0.5,7.7-5,3.2-6.5c-0.6-0.2-3.1-0.3-1.8-1.5
	c0.8-0.8,2.3,0.1,2.9,0.2c0.4,0.1,1.7-1.5,1.4-1.9C101.2,21.8,99.4,21.4,98.8,21.4"/>
<path class="st2" d="M82.1,31.8l2.3,0l0.7-3.5l3.9,0l0.3-2.4L85.5,26c-0.1-0.2,0.2-1.6,0.3-1.9l4.1,0c0.2-0.2,0.5-2.1,0.4-2.3
	c-0.2-0.2-1.8-0.1-2.2-0.1c-0.5,0-4.2-0.1-4.3,0.2C83.6,22.2,82.1,31.3,82.1,31.8"/>
<path class="st2" d="M66.3,24.1c0.3,0.1,2.3,0.1,2.4,0.1l-1.2,7.6l2.4,0.1l1.3-7.7c0.2-0.1,2.1,0,2.5-0.1c0.2-0.3,0.3-1.1,0.4-1.5
	c0.2-0.7,0.2-1-0.6-0.9l-5.9,0.1c-0.6,0-1-0.2-1.1,0.6C66.4,22.8,66.2,23.9,66.3,24.1"/>
<path class="st2" d="M89.8,31.7l2.3,0.1c0.3-0.8,1.2-6.8,1.5-8.5c0.3-1.5,0.7-1.8-0.9-1.7c-1.6,0.1-1.3-0.3-1.6,1.4
	C90.8,25,89.8,30.4,89.8,31.7"/>
<path class="st2" d="M80.1,9.1C80.6,9.1,81,9,81.4,9c0.6-0.1,0.7,0,1-0.4c1.1-1.6,2.9-4.8,3.5-6.5c-0.8,0-1.7,0.1-2.5,0.2
	c-0.9,0-0.5-0.2-1.3,2C81.4,6.2,80.7,7.6,80.1,9.1"/>
</svg>
