<?xml version="1.0" encoding="utf-8"?>
<!-- Generator: Adobe Illustrator 23.0.0, SVG Export Plug-In . SVG Version: 6.00 Build 0)  -->
<svg version="1.1" id="Layer_1" xmlns="http://www.w3.org/2000/svg" xmlns:xlink="http://www.w3.org/1999/xlink" x="0px" y="0px"
	 viewBox="0 0 160 34" style="enable-background:new 0 0 160 34;" xml:space="preserve">
<style type="text/css">
	.st0{clip-path:url(#SVGID_2_);}
	.st1{fill:#C4C4C4;}
	.st2{fill-rule:evenodd;clip-rule:evenodd;fill:#C4C4C4;}
	.st3{fill:#FEFEFE;}
	.st4{fill:#FFFFFF;}
</style>
<g>
	<path class="st1" d="M11.7,32.8V1.5h14.5L32.3,8l6.1-6.5h14.5v31.3H38V17.1l-5.6,6l-5.6-6v15.7H11.7z"/>
</g>
<g>
	<path class="st1" d="M81.1,15.3V1.5H111v13.8h-7.5v17.4H88.6V15.3H81.1z"/>
</g>
<g>
	<path class="st1" d="M135.9,14.9h8.5c-2.1,3.1-4.4,5.7-6.9,8l10.4,9.9h-15.2l-3.4-3.2c-1.7,1.2-3.5,2.1-5.6,2.7
		c-2.1,0.6-4.1,1-6.1,1c-3,0-5.4-0.7-7.1-2.1c-1.8-1.4-2.6-3.2-2.6-5.3c0-3.9,2.8-6.9,8.3-9.1c-2.3-2.2-3.4-4.4-3.4-6.7
		c0-2.6,1.1-4.8,3.3-6.5c2.2-1.7,5-2.6,8.3-2.6c3,0,5.4,0.7,7.3,2.1s2.8,3.2,2.8,5.4c0,2.7-1.6,5.1-4.7,7.2l3.2,3
		C134.2,17.7,135.1,16.5,135.9,14.9z M125.1,25.5l-3.7-3.4c-0.8,0.4-1.3,0.8-1.7,1.2c-0.3,0.4-0.5,0.8-0.5,1.4
		c0,0.6,0.2,1.1,0.7,1.6c0.5,0.4,1.1,0.6,1.9,0.6C122.8,26.8,123.9,26.4,125.1,25.5z M126.7,13c2-0.5,2.9-1.5,2.9-2.9
		c0-0.6-0.2-1.1-0.7-1.5s-1.1-0.6-1.8-0.6c-0.7,0-1.3,0.2-1.8,0.6c-0.5,0.4-0.7,0.9-0.7,1.5C124.6,11,125.3,12,126.7,13z"/>
</g>
<g>
	<path class="st1" d="M66,12.2v3.6H54.3V1.6H66v3.6h-5.5v1.8h3.8v3.6h-3.8v1.7L66,12.2L66,12.2z"/>
	<path class="st1" d="M79.7,12.2v3.6H67.9V1.6h11.8v3.6h-5.5v1.8H78v3.6h-3.8v1.7L79.7,12.2L79.7,12.2z"/>
</g>
<g>
	<path class="st1" d="M66,29.2v3.6H54.3V18.6H66v3.6h-5.5v1.8h3.8v3.6h-3.8v1.7L66,29.2L66,29.2z"/>
</g>
<g>
	<path class="st1" d="M73.9,32.8h-6.3l4.9-14.2h8.9l4.9,14.2h-6.3l-0.8-2.4h-4.6L73.9,32.8z M75.8,27h2.3L77,23.5L75.8,27z"/>
</g>
</svg>
