<?xml version="1.0" encoding="utf-8"?>
<!-- Generator: Adobe Illustrator 23.0.0, SVG Export Plug-In . SVG Version: 6.00 Build 0)  -->
<svg version="1.1" id="Layer_1" xmlns="http://www.w3.org/2000/svg" xmlns:xlink="http://www.w3.org/1999/xlink" x="0px" y="0px"
	 viewBox="0 0 160 34" style="enable-background:new 0 0 160 34;" xml:space="preserve">
<style type="text/css">
	.st0{clip-path:url(#SVGID_2_);}
	.st1{fill:#C4C4C4;}
	.st2{fill-rule:evenodd;clip-rule:evenodd;fill:#C4C4C4;}
	.st3{fill:#FEFEFE;}
	.st4{fill:#FFFFFF;}
</style>
<g>
	<defs>
		<rect id="SVGID_1_" x="2" y="4.7" width="156" height="24.8"/>
	</defs>
	<clipPath id="SVGID_2_">
		<use xlink:href="#SVGID_1_"  style="overflow:visible;"/>
	</clipPath>
	<g class="st0">
		<path class="st1" d="M16.3,20.2c0-3.2-2.1-5.3-4.9-5.3c-0.7,0-1.4,0.1-2,0.4c-0.6,0.3-1.2,0.6-1.7,1.1c-0.5,0.5-0.9,1.1-1.1,1.7
			c-0.3,0.6-0.4,1.3-0.4,2c0,0.7,0.1,1.4,0.4,2c0.3,0.6,0.6,1.2,1.1,1.7c0.5,0.5,1.1,0.9,1.7,1.1c0.6,0.3,1.3,0.4,2,0.4
			C14.3,25.5,16.3,23.5,16.3,20.2L16.3,20.2z M20.8,20.2c0,5.5-4.1,9.3-8.5,9.3c-2.1,0.1-4.1-0.6-5.7-1.9V29H2V4.7h4.6v8.2
			c1.6-1.3,3.6-2,5.7-1.9C16.7,10.9,20.8,14.7,20.8,20.2"/>
		<path class="st1" d="M36.7,20.2c0-0.7-0.1-1.4-0.4-2c-0.2-0.6-0.6-1.2-1.1-1.7c-0.5-0.5-1-0.9-1.7-1.1c-0.6-0.3-1.3-0.4-2-0.4
			c-2.9,0-5,2-5,5.3c0,3.2,2.1,5.2,5,5.2c0.7,0,1.3-0.1,2-0.4c0.6-0.3,1.2-0.7,1.7-1.1c0.5-0.5,0.8-1.1,1.1-1.7
			C36.6,21.6,36.7,20.9,36.7,20.2z M41,29h-4.6v-1.4c-1.6,1.3-3.7,2-5.7,1.9c-4.4,0-8.5-3.8-8.5-9.3c0-5.5,4.1-9.3,8.5-9.3
			c2.1-0.1,4.1,0.6,5.7,1.9v-1.4H41V29z"/>
		<path class="st1" d="M56.7,11.4l-0.2,4.5h-1c-4.2,0-6.2,2.6-6.2,7.5V29h-4.6V11.5h4.6v3.2c0.7-1.1,1.6-1.9,2.7-2.5
			c1.1-0.6,2.3-0.9,3.5-0.9C55.9,11.2,56.3,11.2,56.7,11.4"/>
		<path class="st1" d="M88.8,20.2c0-0.7-0.1-1.4-0.4-2c-0.2-0.6-0.6-1.2-1.1-1.7c-0.5-0.5-1-0.9-1.7-1.1c-0.6-0.3-1.3-0.4-2-0.4
			c-2.9,0-5,2-5,5.3c0,3.2,2.1,5.2,5,5.2c0.7,0,1.3-0.1,2-0.4c0.6-0.3,1.2-0.7,1.7-1.1c0.5-0.5,0.8-1.1,1.1-1.7
			C88.7,21.6,88.8,20.9,88.8,20.2L88.8,20.2z M93.1,29h-4.6v-1.4c-1.6,1.3-3.7,2-5.7,1.9c-4.4,0-8.5-3.8-8.5-9.3
			c0-5.5,4.1-9.3,8.5-9.3c2.1-0.1,4.1,0.6,5.7,1.9v-1.4h4.6V29z"/>
		<path class="st1" d="M119,20.2c0-0.7-0.1-1.4-0.4-2c-0.2-0.6-0.6-1.2-1.1-1.7c-0.5-0.5-1-0.9-1.7-1.1c-0.6-0.3-1.3-0.4-2-0.4
			c-2.9,0-5,2-5,5.3c0,3.2,2.1,5.2,5,5.2c0.7,0,1.3-0.1,2-0.4c0.6-0.3,1.2-0.7,1.7-1.1c0.5-0.5,0.8-1.1,1.1-1.7
			C118.9,21.6,119,20.9,119,20.2L119,20.2z M123.3,29h-4.6v-1.4c-1.6,1.3-3.7,2-5.7,1.9c-4.4,0-8.5-3.8-8.5-9.3
			c0-5.5,4.1-9.3,8.5-9.3c2.1-0.1,4.1,0.6,5.7,1.9v-1.4h4.6V29z"/>
		<path class="st1" d="M153.7,20.2c0-0.7-0.1-1.4-0.4-2c-0.2-0.6-0.6-1.2-1.1-1.7c-0.5-0.5-1-0.9-1.7-1.1s-1.3-0.4-2-0.4
			c-2.9,0-5,2-5,5.3c0,3.2,2.1,5.2,5,5.2c0.7,0,1.3-0.1,2-0.4c0.6-0.3,1.2-0.7,1.7-1.1c0.5-0.5,0.8-1.1,1.1-1.7
			C153.6,21.6,153.7,20.9,153.7,20.2z M158,29h-4.6v-1.4c-1.6,1.3-3.7,2-5.7,1.9c-4.4,0-8.5-3.8-8.5-9.3c0-5.5,4.1-9.3,8.5-9.3
			c2.1-0.1,4.1,0.6,5.7,1.9v-1.4h4.6V29z"/>
		<path class="st1" d="M61.9,23.4c0.2,1.8,1.8,2.4,3.6,2.4c1.7,0,2.7-0.8,2.7-1.8c0-0.6-0.4-1.3-1.9-1.6l-3.5-0.7
			c-3.1-0.7-4.9-2.5-4.9-5c0-3.4,2.7-5.8,7.1-5.8c4.1,0,6.9,2.1,7.5,5.2L68,17c-0.2-1.4-1.4-2.4-3.3-2.4c-1.8,0-2.4,0.9-2.4,1.7
			c0,0.6,0.2,1.2,1.6,1.5l4.1,0.9c3,0.7,4.5,2.6,4.5,4.9c0,3.9-3.1,5.9-7.6,5.9c-3.8,0-7.3-1.5-7.8-5.2L61.9,23.4z"/>
		<path class="st1" d="M101.6,4.7H97V29h4.6V4.7z"/>
		<path class="st1" d="M138.5,28.2c-1.4,0.8-2.9,1.3-4.5,1.3c-4.1,0-6.8-2.2-6.8-7V4.7h4.6v6.8h5.6v3.8h-5.6v6.9c0,2.1,1,3,2.5,3
			c1-0.1,2-0.4,2.9-0.8L138.5,28.2z"/>
	</g>
</g>
</svg>
