<?xml version="1.0" encoding="utf-8"?>
<!-- Generator: Adobe Illustrator 23.0.0, SVG Export Plug-In . SVG Version: 6.00 Build 0)  -->
<svg version="1.1" id="Layer_1" xmlns="http://www.w3.org/2000/svg" xmlns:xlink="http://www.w3.org/1999/xlink" x="0px" y="0px"
	 viewBox="0 0 160 34" style="enable-background:new 0 0 160 34;" xml:space="preserve">
<style type="text/css">
	.st0{clip-path:url(#SVGID_2_);}
	.st1{fill:#C4C4C4;}
	.st2{fill-rule:evenodd;clip-rule:evenodd;fill:#C4C4C4;}
	.st3{fill:#FEFEFE;}
	.st4{fill:#FFFFFF;}
</style>
<g>
	<path class="st1" d="M91.8,10.3c0,0.2,0,0.3,0.2,0.4c3.2,2.5,3.8,5.8,3,9.6c-0.9,4.3-4.4,7.5-8.6,8c-0.2,0-0.4,0-0.5,0.1
		c-0.3,0.1-0.5,0.1-0.8,0c-0.1,0-0.3,0-0.4,0c-0.3,0-0.6,0-0.9,0c-0.1,0-0.2,0-0.3,0l-0.7-0.1c-0.3,0-0.5-0.1-0.7-0.1
		c-3.8-1.1-6.4-4.2-6.5-8.3c-0.1-3.8,1.8-8.3,6.3-10.2c2.8-1.2,5.7-1.2,8.6,0c0.4,0.2,0.9,0.3,1.3,0.3
		C91.8,10.1,91.9,10.2,91.8,10.3C91.8,10.3,91.8,10.3,91.8,10.3z"/>
	<path class="st1" d="M91.8,10.3c0-0.1,0-0.1,0-0.2c1.4-0.9,2.9-1,4.5-0.8c1.7,0.2,2.8,1.2,3.6,2.6c1.6,2.8,2.6,5.8,3.8,8.7
		c0.5,1.3,1,2.6,1.6,4.1c0.4-0.9,0.7-1.6,0.9-2.3c1.6-4,3.2-7.9,4.7-11.9c0.2-0.5,0.6-1-0.3-1.3c0.9,0,1.7,0,2.8,0
		c-1.3,0.4-1.6,1.4-2,2.3c-2.3,5.6-4.5,11.3-6.8,16.9c-0.1,0-0.1,0-0.2,0c-1.7-4.2-3.5-8.4-5.2-12.7c-0.6-1.4-1.2-2.7-2-4
		c-1.3-1.9-2.7-2.4-4.9-1.8C92.2,10.3,92,10.3,91.8,10.3z"/>
	<path class="st1" d="M160,9.5c-0.8,0-1.2,0.4-1.6,1c-1.5,2.3-3,4.5-4.5,6.8c-0.2,0.3-0.3,0.6-0.3,0.9c0,2.7,0,5.4,0,8.1
		c0,0.9,0.2,1.6,1.2,1.8c-1.5,0-3.1,0-4.6,0c1.5-0.2,1.2-1.3,1.2-2.3c0-2.2,0-4.4,0-6.7c0-0.6-0.1-1-0.4-1.5c-1.4-2.3-2.8-4.6-4.2-7
		c-0.4-0.6-0.8-1.1-1.5-1.4c1.4,0,2.8,0,4.2,0c-0.5,0.3-0.5,0.8-0.2,1.2c1.3,2.1,2.5,4.1,3.8,6.3c0.8-1.2,1.6-2.4,2.3-3.5
		c0.6-0.9,1.3-1.9,1.9-2.8c0.3-0.4,0.7-0.9-0.4-1.3c1.2,0,2.1,0,3,0C160,9.4,160,9.4,160,9.5z"/>
	<path class="st1" d="M1.4,9.4c4.1,0,8.2-0.3,12.3,0.1c7,0.7,9.6,7.2,7.1,12.8c-1.7,3.7-4.5,5.8-8.6,5.9c-3.6,0-7.1,0-10.8,0
		c1.1-0.2,1.2-1,1.2-1.8c0-5.1,0-10.3,0-15.4C2.6,10.1,2.4,9.4,1.4,9.4z"/>
	<path class="st1" d="M78.1,27.2c-2.6,1.9-5.7,1.6-7.8-0.9c-1.7-2-3-4.2-4.4-6.3c-0.4-0.6-0.8-0.9-1.5-0.8c-2.2,0.1-2.2,0.1-2.2,2.3
		c0,1.6,0,3.2,0,4.9c0,0.9,0.1,1.7,1.2,1.9c-1.5,0-3.1,0-4.6,0c1.1-0.3,1.1-1.1,1.1-2.1c0-5,0-9.9,0-14.9c0-0.8,0-1.7-1.1-1.9
		c0.2,0,0.5,0,0.7,0c2.4,0,4.7,0,7.1,0c3.5,0.1,5.3,3.2,3.7,6.3c-0.5,1-1.2,1.8-2.2,2.4c-0.4,0.3-0.6,0.4-0.2,0.9
		c1.5,2.3,3,4.6,4.8,6.7c1.7,2,3,2.2,5.3,1.3C78.1,26.9,78.2,27,78.1,27.2z"/>
	<path class="st1" d="M23.7,9.3c1.6,0,3.2,0,4.8,0c-1.4,0.1-1.3,1.2-1.3,2.2c0,3.5,0,6.9,0,10.4c0,2.1,0.7,3.9,2.7,4.8
		c2,1,3.9,0.7,5.8-0.5c1.3-0.8,2.1-1.7,2-3.5c-0.2-3.8,0-7.6-0.1-11.4c0-0.8,0-1.8-1.2-2c1.5,0,3.1,0,4.7,0c-0.4,0.3-1,0.2-1.1,0.7
		c-0.2,0.5-0.1,1-0.1,1.5c0,4.9,0,9.9,0,14.8c0,0.9,0.2,1.6,1.2,1.9c-1,0-2,0-3,0c-0.4,0-0.4-0.3-0.4-0.6c0-0.7,0-1.4,0-2.2
		c-0.4,0.4-0.7,0.6-1,0.9c-2.2,1.8-4.6,2.5-7.4,1.9c-2.7-0.6-4.3-2.7-4.3-5.7c0-3.8,0-7.5,0-11.3C24.9,10.3,25,9.4,23.7,9.3z"/>
	<path class="st1" d="M52.6,17.5c2.4,0.6,3.7,1.9,4,4c0.3,2.3-0.3,4.2-2,5.7c-0.7,0.6-1.6,0.9-2.6,0.9c-2.9,0-5.7,0-8.7,0
		c1.2-0.2,1.2-1,1.2-1.9c0-5,0-10.1,0-15.1c0-0.8,0-1.6-1.1-1.8c2.5,0,4.9-0.1,7.4,0c1.9,0.1,3.4,1.2,4,3.1c0.6,1.9,0,3.5-1.6,4.7
		C53.1,17.3,53,17.3,52.6,17.5z"/>
	<path class="st1" d="M145.1,28.2c-2,0-4.1,0-6.2,0c0.1-0.4,0.6-0.1,0.6-0.4c0-0.3-0.4-0.4-0.6-0.6c-2.4-2.4-4.9-4.8-7.3-7.2
		c-0.3-0.3-0.5-0.6-0.7-0.9c-0.1,0-0.2,0.1-0.3,0.1c0,1.1,0,2.1,0,3.2c0,1.3,0,2.5,0,3.8c0,1,0.2,1.9,1.4,2c-1.7,0-3.4,0-5.1,0
		c1.4-0.1,1.5-1.1,1.5-2.1c0-5,0-9.9,0-14.9c0-0.8,0-1.7-1.2-1.8c1.6,0,3.3,0,4.9,0c-1.3,0.1-1.5,1.1-1.5,2.1c0,2.3,0,4.6,0,7
		c1.5-1.4,2.9-2.7,4.3-4.1c1.5-1.4,2.9-2.8,4.4-4.2c0.4-0.4,0.7-0.7-0.1-0.9c1.3,0,2.5,0,3.8,0c-2.5,0.3-3.8,2.3-5.4,3.8
		c-1.5,1.4-2.9,2.9-4.4,4.3c-0.2,0.2-0.5,0.4-0.1,0.7c3,2.8,5.5,6.1,8.9,8.4C143,27.3,144,27.8,145.1,28.2z"/>
	<path class="st1" d="M124.6,11.9c-0.5-0.1-0.6-0.4-0.9-0.7c-1.7-1.8-4.6-2.1-6.4-0.8c-2.1,1.6-1.9,4.6,0.4,5.8
		c1.5,0.7,3.2,1.2,4.7,1.9c3.2,1.4,4.2,5.1,2.3,7.9c-1.1,1.5-2.6,2.1-4.3,2.2c-1.8,0.1-3.6,0-5.5,0.1c-0.4,0-0.7,0-0.7-0.5
		c0-1.6,0-3.3,0-5c0.3,0.3,0.2,0.5,0.2,0.7c0.3,2.6,1.3,3.6,3.8,4c1.3,0.2,2.7,0.2,3.9-0.4c1.4-0.6,2.2-1.7,2.3-3.3
		c0.1-1.5-0.8-2.5-2-3.1c-1.1-0.6-2.4-1-3.6-1.4c-1.3-0.5-2.5-1-3.3-2.3c-2.2-3.6,0.1-7.8,4.4-8c1.1-0.1,2.2,0.2,3.2,0.4
		c0.2,0,0.5,0.1,0.6,0.4C124,10.4,124.3,11.1,124.6,11.9z"/>
	<path class="st3" d="M94,19.7c0,5.6-6.1,9.4-11.1,7c-4-1.9-6.5-6.8-5.7-10.8c0.9-4.1,5.1-6.7,9.2-5.5c3.8,1.1,6.5,3.6,7.5,7.6
		C94,18.5,94,19.1,94,19.7z"/>
	<path class="st3" d="M4.9,17.7c0-2.4,0-4.8,0-7.1c0-0.4-0.1-0.8,0.5-0.8c3,0,5.9-0.1,8.8,1.2c5.7,2.5,7.2,10.1,2.8,14.5
		c-1.4,1.4-3.1,1.9-5,2.1c-1.6,0.2-3.2,0.2-4.7-0.1c-1.7-0.4-2.3-1-2.3-2.8C4.9,22.3,4.9,20,4.9,17.7C4.9,17.7,4.9,17.7,4.9,17.7z"
		/>
	<path class="st3" d="M63.7,18.6c-1.5,0-1.5,0-1.5-1.5c0-2.2,0-4.4,0-6.5c0-0.6,0.2-0.8,0.8-0.8c0.4,0,0.7,0,1.1,0
		c3.3,0.1,5.3,2.9,4.5,6.1c-0.4,1.6-1.7,2.5-3.7,2.7C64.4,18.6,64.1,18.6,63.7,18.6z"/>
	<path class="st3" d="M49.1,18.5c0.5,0,1,0,1.5,0c2,0.1,3.1,1,3.7,2.9c0.4,1.3,0.5,2.7,0.1,4c-0.3,1.1-1,1.9-2.1,2.1
		c-1.3,0.3-2.6,0.3-3.9-0.1c-0.9-0.3-1.5-0.9-1.5-1.9c0-2.1,0-4.3,0-6.5c0-0.5,0.2-0.6,0.7-0.6C48.1,18.4,48.6,18.4,49.1,18.5
		C49.1,18.4,49.1,18.4,49.1,18.5z"/>
	<path class="st3" d="M48.9,17.9c-2,0-2,0-2-1.8c0-1.9,0-3.7,0-5.6c0-0.8,0.2-1,1-0.9c0.7,0.1,1.4,0.1,2.1,0.2
		c1.4,0.3,2.6,1.2,2.9,2.7c0.4,1.7,0.2,3.3-1,4.5C50.9,18,49.8,17.9,48.9,17.9z"/>
</g>
</svg>
