<svg width="512" height="512" viewBox="0 0 512 512" fill="none" xmlns="http://www.w3.org/2000/svg">
<g clip-path="url(#clip0)">
<path d="M505.943 6.05799C497.866 -2.01901 484.771 -2.01901 476.694 6.05799L6.05799 476.693C-2.01901 484.77 -2.01901 497.865 6.05799 505.942C10.096 509.982 15.39 512 20.683 512C25.976 512 31.269 509.981 35.308 505.941L505.943 35.306C514.019 27.23 514.019 14.135 505.943 6.05799Z" fill="#777777"/>
<path d="M505.942 476.694L35.306 6.059C27.23 -2.018 14.134 -2.018 6.05799 6.059C-2.01901 14.135 -2.01901 27.23 6.05799 35.307L476.694 505.943C480.732 509.982 486.026 512.001 491.319 512.001C496.612 512.001 501.906 509.982 505.943 505.944C514.018 497.866 514.018 484.771 505.942 476.694Z" fill="#777777"/>
</g>
<defs>
<clipPath id="clip0">
<rect width="512" height="512" fill="white"/>
</clipPath>
</defs>
</svg>
