<svg width="60" height="60" viewBox="0 0 60 60" fill="none" xmlns="http://www.w3.org/2000/svg">
<path d="M58.3523 60H1.64065C0.73935 60 0 59.2746 0 58.3748V49.3908C0 48.498 0.732309 47.7656 1.64065 47.7656H58.3593C59.2607 47.7656 60 48.491 60 49.3908V58.3748C59.993 59.2676 59.2607 60 58.3523 60ZM2.11243 57.9074H57.8805V49.8582H2.11243V57.9074Z" fill="#0C2758"/>
<path d="M56.606 49.8582H3.38692V16.824C3.38692 15.3732 4.57692 14.1874 6.04858 14.1874H53.9444C55.409 14.1874 56.606 15.3662 56.606 16.824V49.8582ZM5.49935 47.7656H54.4866V16.824C54.4866 16.524 54.2401 16.2799 53.9373 16.2799H6.04858C5.7458 16.2799 5.49935 16.524 5.49935 16.824V47.7656Z" fill="#0C2758"/>
<path d="M55.0076 10.5534H31.8554C30.9752 10.5534 30.257 9.8419 30.257 8.97001V1.58335C30.257 0.711462 30.9752 0 31.8554 0H55.0076C55.8878 0 56.606 0.711462 56.606 1.58335V8.97001C56.606 9.84888 55.8878 10.5534 55.0076 10.5534ZM32.3694 8.46082H54.4936V2.09254H32.3694V8.46082Z" fill="#0C2758"/>
<path d="M44.5018 9.56299H42.3894V15.2128H44.5018V9.56299Z" fill="#0C2758"/>
<path d="M50.5574 33.1388H29.6444V21.8391H50.5574V33.1388ZM31.7568 31.0463H48.445V23.9316H31.7568V31.0463Z" fill="#0C2758"/>
<path d="M13.8716 21.8391H9.99883V23.9316H13.8716V21.8391Z" fill="#0C2758"/>
<path d="M22.9551 21.8391H19.0823V23.9316H22.9551V21.8391Z" fill="#0C2758"/>
<path d="M13.8716 31.0463H9.99883V33.1388H13.8716V31.0463Z" fill="#0C2758"/>
<path d="M22.9551 31.0463H19.0823V33.1388H22.9551V31.0463Z" fill="#0C2758"/>
<path d="M13.8716 40.0442H9.99883V42.1367H13.8716V40.0442Z" fill="#0C2758"/>
<path d="M22.9551 40.0442H19.0823V42.1367H22.9551V40.0442Z" fill="#0C2758"/>
<path d="M50.2758 40.0442H29.8556V42.1367H50.2758V40.0442Z" fill="#0C2758"/>
<path d="M36.2633 52.7389H23.7296V54.8314H36.2633V52.7389Z" fill="#0C2758"/>
</svg>
