<svg width="60" height="60" viewBox="0 0 60 60" fill="none" xmlns="http://www.w3.org/2000/svg">
<path d="M5.38462 0C2.41485 0 0 2.54538 0 5.67568V15.4054C0 17.47 1.05287 19.277 2.62019 20.2703C1.05287 21.2635 0 23.0706 0 25.1351V34.8649C0 36.9294 1.05287 38.7365 2.62019 39.7297C1.05287 40.723 0 42.53 0 44.5946V54.3243C0 57.4546 2.41485 60 5.38462 60H54.6154C57.5852 60 60 57.4546 60 54.3243V44.5946C60 42.53 58.9471 40.723 57.3798 39.7297C58.9471 38.7365 60 36.9294 60 34.8649V25.1351C60 23.0706 58.9471 21.2635 57.3798 20.2703C58.9471 19.277 60 17.47 60 15.4054V5.67568C60 2.54538 57.5852 0 54.6154 0H5.38462ZM5.38462 1.62162H54.6154C56.7595 1.62162 58.4615 3.4157 58.4615 5.67568V15.4054C58.4615 17.6654 56.7595 19.4595 54.6154 19.4595H5.38462C3.24055 19.4595 1.53846 17.6654 1.53846 15.4054V5.67568C1.53846 3.4157 3.24055 1.62162 5.38462 1.62162ZM14.6154 6.48649C12.5003 6.48649 10.7692 8.31114 10.7692 10.5405C10.7692 12.7699 12.5003 14.5946 14.6154 14.5946C16.7304 14.5946 18.4615 12.7699 18.4615 10.5405C18.4615 8.31114 16.7304 6.48649 14.6154 6.48649ZM14.6154 8.10811C15.899 8.10811 16.9231 9.18754 16.9231 10.5405C16.9231 11.8935 15.899 12.973 14.6154 12.973C13.3318 12.973 12.3077 11.8935 12.3077 10.5405C12.3077 9.18754 13.3318 8.10811 14.6154 8.10811ZM30 9.72973C29.5752 9.72973 29.2308 10.0927 29.2308 10.5405C29.2308 10.9883 29.5752 11.3514 30 11.3514H46.9231C47.3479 11.3514 47.6923 10.9883 47.6923 10.5405C47.6923 10.0927 47.3479 9.72973 46.9231 9.72973H30ZM5.38462 21.0811H54.6154C56.7595 21.0811 58.4615 22.8752 58.4615 25.1351V34.8649C58.4615 37.1248 56.7595 38.9189 54.6154 38.9189H5.38462C3.24054 38.9189 1.53846 37.1248 1.53846 34.8649V25.1351C1.53846 22.8752 3.24054 21.0811 5.38462 21.0811ZM14.6154 25.9459C12.5003 25.9459 10.7692 27.7706 10.7692 30C10.7692 32.2294 12.5003 34.0541 14.6154 34.0541C16.7304 34.0541 18.4615 32.2294 18.4615 30C18.4615 27.7706 16.7304 25.9459 14.6154 25.9459ZM14.6154 27.5676C15.899 27.5676 16.9231 28.647 16.9231 30C16.9231 31.353 15.899 32.4324 14.6154 32.4324C13.3318 32.4324 12.3077 31.353 12.3077 30C12.3077 28.647 13.3318 27.5676 14.6154 27.5676ZM30 29.1892C29.5752 29.1892 29.2308 29.5522 29.2308 30C29.2308 30.4478 29.5752 30.8108 30 30.8108H46.9231C47.3479 30.8108 47.6923 30.4478 47.6923 30C47.6923 29.5522 47.3479 29.1892 46.9231 29.1892H30ZM5.38462 40.5405H54.6154C56.7595 40.5405 58.4615 42.3346 58.4615 44.5946V54.3243C58.4615 56.5843 56.7595 58.3784 54.6154 58.3784H5.38462C3.24054 58.3784 1.53846 56.5843 1.53846 54.3243V44.5946C1.53846 42.3346 3.24054 40.5405 5.38462 40.5405ZM14.6154 45.4054C12.5003 45.4054 10.7692 47.2301 10.7692 49.4595C10.7692 51.6889 12.5003 53.5135 14.6154 53.5135C16.7304 53.5135 18.4615 51.6889 18.4615 49.4595C18.4615 47.2301 16.7304 45.4054 14.6154 45.4054ZM14.6154 47.027C15.899 47.027 16.9231 48.1065 16.9231 49.4595C16.9231 50.8125 15.899 51.8919 14.6154 51.8919C13.3318 51.8919 12.3077 50.8125 12.3077 49.4595C12.3077 48.1065 13.3318 47.027 14.6154 47.027ZM30 48.6486C29.5752 48.6486 29.2308 49.0117 29.2308 49.4595C29.2308 49.9073 29.5752 50.2703 30 50.2703H46.9231C47.3479 50.2703 47.6923 49.9073 47.6923 49.4595C47.6923 49.0117 47.3479 48.6486 46.9231 48.6486H30Z" fill="#0C2758"/>
</svg>
