<svg width="60" height="60" viewBox="0 0 60 60" fill="none" xmlns="http://www.w3.org/2000/svg">
<path d="M55.8537 48.3537C58.1098 48.3537 60 46.5244 60 44.2073V4.14634C60 1.89024 58.1707 0 55.8537 0H4.14634C1.89024 0 0 1.82927 0 4.14634V44.2683C0 46.5244 1.82927 48.4146 4.14634 48.4146H28.5366V57.8049H20C19.3902 57.8049 18.9024 58.2927 18.9024 58.9024C18.9024 59.5122 19.3902 60 20 60H39.2683C39.878 60 40.3659 59.5122 40.3659 58.9024C40.3659 58.2927 39.878 57.8049 39.2683 57.8049H30.7317V48.3537H55.8537ZM4.14634 2.13415H55.7927C56.8902 2.13415 57.8049 3.04878 57.8049 4.14634V11.5854H2.13415V4.14634C2.13415 2.9878 3.04878 2.13415 4.14634 2.13415ZM2.13415 44.2073V13.6585H57.8049V44.2073C57.8049 45.3049 56.8902 46.2195 55.7927 46.2195H4.14634C3.04878 46.2195 2.13415 45.3049 2.13415 44.2073ZM6.09756 7.56098C5.91463 7.37805 5.79268 7.07317 5.79268 6.82927C5.79268 6.58537 5.91463 6.28049 6.09756 6.09756C6.46341 5.73171 7.19512 5.73171 7.62195 6.09756C7.80488 6.28049 7.92683 6.58537 7.92683 6.82927C7.92683 7.13415 7.80488 7.37805 7.62195 7.56098C7.43902 7.7439 7.13415 7.86585 6.89024 7.86585C6.58537 7.92683 6.34146 7.80488 6.09756 7.56098ZM11.8902 7.56098C11.7073 7.37805 11.5854 7.07317 11.5854 6.82927C11.5854 6.58537 11.7073 6.28049 11.8902 6.09756C12.2561 5.73171 12.9878 5.73171 13.4146 6.09756C13.5976 6.28049 13.7195 6.58537 13.7195 6.82927C13.7195 7.13415 13.5976 7.37805 13.4146 7.56098C13.2317 7.7439 12.9268 7.86585 12.6829 7.86585C12.378 7.92683 12.0732 7.80488 11.8902 7.56098ZM17.6829 7.56098C17.5 7.37805 17.378 7.07317 17.378 6.82927C17.378 6.58537 17.5 6.28049 17.6829 6.09756C18.1098 5.73171 18.7805 5.73171 19.2073 6.09756C19.3902 6.28049 19.5122 6.58537 19.5122 6.82927C19.5122 7.07317 19.3902 7.37805 19.2073 7.56098C19.0244 7.7439 18.7195 7.86585 18.4756 7.86585C18.2317 7.86585 17.8659 7.80488 17.6829 7.56098ZM37.2561 25.4878L27.561 35.122C27.378 35.3049 27.0732 35.4268 26.8293 35.4268C26.5854 35.4268 26.2805 35.3049 26.0976 35.122L22.0122 31.0366C21.5854 30.6098 21.5854 29.939 22.0122 29.5122C22.439 29.0854 23.1098 29.0854 23.5366 29.5122L26.8293 32.8659L35.7927 23.9634C36.2195 23.5366 36.8902 23.5366 37.3171 23.9634C37.6829 24.3902 37.6829 25.061 37.2561 25.4878Z" fill="#0C2758"/>
</svg>
