<svg width="34" height="60" viewBox="0 0 34 60" fill="none" xmlns="http://www.w3.org/2000/svg">
<path d="M33 54.2424V5.75758C32.9982 4.2311 32.3696 2.76765 31.2521 1.68827C30.1347 0.608889 28.6196 0.00173241 27.0392 0H6.96078C5.38076 0.0013982 3.86584 0.608115 2.74836 1.68704C1.63088 2.76597 1.00211 4.229 1 5.75515V54.2448C1.00211 55.771 1.63088 57.234 2.74836 58.313C3.86584 59.3919 5.38076 59.9986 6.96078 60H27.0392C28.6196 59.9983 30.1347 59.3911 31.2521 58.3117C32.3696 57.2324 32.9982 55.7689 33 54.2424V54.2424ZM2.88235 5.75515C2.88392 4.71105 3.31419 3.71018 4.07878 2.97211C4.84337 2.23404 5.87983 1.81905 6.96078 1.81818H27.0392C28.1205 1.81939 29.1571 2.23482 29.9217 2.97334C30.6863 3.71185 31.1164 4.71315 31.1176 5.75758V9.69697H2.88235V5.75515ZM2.88235 11.5152H31.1176V48.4848H2.88235V11.5152ZM2.88235 54.2448V50.303H31.1176V54.2424C31.1164 55.2868 30.6863 56.2881 29.9217 57.0267C29.1571 57.7652 28.1205 58.1806 27.0392 58.1818H6.96078C5.87983 58.1809 4.84337 57.766 4.07878 57.0279C3.31419 56.2898 2.88392 55.289 2.88235 54.2448V54.2448Z" fill="#0C2758"/>
<path d="M22 5.0625H12C11.7514 5.0625 11.5129 5.16127 11.3371 5.33709C11.1613 5.5129 11.0625 5.75136 11.0625 6C11.0625 6.24864 11.1613 6.4871 11.3371 6.66291C11.5129 6.83873 11.7514 6.9375 12 6.9375H22C22.2486 6.9375 22.4871 6.83873 22.6629 6.66291C22.8387 6.4871 22.9375 6.24864 22.9375 6C22.9375 5.75136 22.8387 5.5129 22.6629 5.33709C22.4871 5.16127 22.2486 5.0625 22 5.0625Z" fill="#0C2758"/>
<path d="M16.4375 51C15.7576 51 15.093 51.2016 14.5277 51.5793C13.9624 51.957 13.5218 52.4939 13.2617 53.122C13.0015 53.7501 12.9334 54.4413 13.0661 55.1081C13.1987 55.7749 13.5261 56.3874 14.0068 56.8682C14.4876 57.3489 15.1001 57.6763 15.7669 57.8089C16.4337 57.9416 17.1249 57.8735 17.753 57.6133C18.3811 57.3532 18.918 56.9126 19.2957 56.3473C19.6734 55.782 19.875 55.1174 19.875 54.4375C19.8741 53.5261 19.5116 52.6523 18.8672 52.0078C18.2227 51.3634 17.3489 51.0009 16.4375 51V51ZM16.4375 56C16.1285 56 15.8264 55.9084 15.5694 55.7367C15.3125 55.565 15.1122 55.3209 14.9939 55.0354C14.8757 54.7499 14.8447 54.4358 14.905 54.1327C14.9653 53.8296 15.1141 53.5512 15.3326 53.3326C15.5512 53.1141 15.8296 52.9653 16.1327 52.905C16.4358 52.8447 16.7499 52.8757 17.0354 52.9939C17.321 53.1122 17.565 53.3125 17.7367 53.5694C17.9084 53.8264 18 54.1285 18 54.4375C17.9996 54.8518 17.8349 55.249 17.5419 55.5419C17.249 55.8349 16.8518 55.9996 16.4375 56V56Z" fill="#0C2758"/>
<path d="M27 27.5625H25.2996L26.5019 26.3595C26.589 26.2725 26.6581 26.1691 26.7052 26.0554C26.7524 25.9417 26.7766 25.8198 26.7766 25.6967C26.7766 25.5735 26.7524 25.4516 26.7052 25.3379C26.6581 25.2242 26.589 25.1208 26.5019 25.0338L22.9656 21.4981C22.7864 21.3287 22.5492 21.2344 22.3027 21.2344C22.0562 21.2344 21.819 21.3287 21.6399 21.4981L20.4375 22.7011V21C20.4374 20.7514 20.3386 20.513 20.1628 20.3372C19.987 20.1614 19.7486 20.0626 19.5 20.0625H14.5C14.2514 20.0626 14.013 20.1614 13.8372 20.3372C13.6614 20.513 13.5626 20.7514 13.5625 21V22.7011L12.3601 21.4981C12.2731 21.411 12.1697 21.3419 12.056 21.2948C11.9423 21.2477 11.8204 21.2234 11.6973 21.2234C11.5742 21.2234 11.4523 21.2477 11.3385 21.2948C11.2248 21.3419 11.1215 21.411 11.0344 21.4981L7.49805 25.0338C7.41097 25.1208 7.3419 25.2242 7.29478 25.3379C7.24765 25.4516 7.22339 25.5735 7.22339 25.6967C7.22339 25.8198 7.24765 25.9417 7.29478 26.0554C7.3419 26.1691 7.41097 26.2725 7.49805 26.3595L8.70044 27.5625H7C6.75138 27.5626 6.51296 27.6614 6.33716 27.8372C6.16135 28.013 6.06256 28.2514 6.0625 28.5V33.5C6.06256 33.7486 6.16135 33.987 6.33716 34.1628C6.51296 34.3386 6.75138 34.4374 7 34.4375H8.70044L7.49805 35.6405C7.41097 35.7275 7.3419 35.8309 7.29478 35.9446C7.24765 36.0583 7.22339 36.1802 7.22339 36.3033C7.22339 36.4265 7.24765 36.5484 7.29478 36.6621C7.3419 36.7758 7.41097 36.8792 7.49805 36.9662L11.0344 40.5019C11.2136 40.6713 11.4508 40.7656 11.6973 40.7656C11.9438 40.7656 12.181 40.6713 12.3601 40.5019L13.5625 39.299V41C13.5626 41.2486 13.6614 41.487 13.8372 41.6628C14.013 41.8386 14.2514 41.9374 14.5 41.9375H19.5C19.7486 41.9374 19.987 41.8386 20.1628 41.6628C20.3386 41.487 20.4374 41.2486 20.4375 41V39.299L21.6399 40.5019C21.7269 40.589 21.8303 40.6581 21.944 40.7052C22.0577 40.7524 22.1796 40.7766 22.3027 40.7766C22.4258 40.7766 22.5477 40.7524 22.6615 40.7052C22.7752 40.6581 22.8785 40.589 22.9656 40.5019L26.5019 36.9662C26.589 36.8792 26.6581 36.7758 26.7052 36.6621C26.7524 36.5484 26.7766 36.4265 26.7766 36.3033C26.7766 36.1802 26.7524 36.0583 26.7052 35.9446C26.6581 35.8309 26.589 35.7275 26.5019 35.6405L25.2996 34.4375H27C27.2486 34.4374 27.487 34.3386 27.6628 34.1628C27.8386 33.987 27.9374 33.7486 27.9375 33.5V28.5C27.9374 28.2514 27.8386 28.013 27.6628 27.8372C27.487 27.6614 27.2486 27.5626 27 27.5625V27.5625ZM26.0625 32.5625H24.0642C23.8703 32.5624 23.6811 32.6226 23.5228 32.7346C23.3645 32.8467 23.2448 33.0052 23.1805 33.1881C23.1037 33.4047 23.0152 33.617 22.9156 33.8241C22.8326 33.9991 22.8058 34.1954 22.8388 34.3862C22.8718 34.5769 22.963 34.7529 23.0999 34.8898L24.5135 36.3033L22.3028 38.5134L20.8904 37.0998C20.7539 36.9626 20.5782 36.8711 20.3875 36.8381C20.1968 36.8051 20.0006 36.8321 19.8259 36.9155C19.6177 37.0146 19.4047 37.103 19.1875 37.1804C19.0047 37.2449 18.8463 37.3646 18.7344 37.5228C18.6224 37.6811 18.5624 37.8703 18.5625 38.0642V40.0625H15.4375V38.0642C15.4376 37.8703 15.3776 37.6812 15.2656 37.5229C15.1537 37.3646 14.9953 37.245 14.8125 37.1805C14.5953 37.103 14.3823 37.0146 14.1741 36.9156C13.9993 36.8328 13.8032 36.8061 13.6127 36.8391C13.4221 36.8721 13.2464 36.9632 13.1096 37.0999L11.6973 38.5135L9.48659 36.3034L10.9002 34.8898C11.0371 34.7529 11.1283 34.577 11.1613 34.3862C11.1943 34.1954 11.1674 33.9991 11.0845 33.8241C10.9848 33.6171 10.8964 33.4047 10.8196 33.1881C10.7552 33.0052 10.6356 32.8467 10.4773 32.7347C10.319 32.6226 10.1298 32.5625 9.93585 32.5625H7.9375V29.4375H9.93579C10.1297 29.4376 10.3189 29.3775 10.4772 29.2654C10.6355 29.1533 10.7552 28.9949 10.8195 28.8119C10.8963 28.5953 10.9848 28.383 11.0844 28.1759C11.1674 28.001 11.1942 27.8047 11.1612 27.6139C11.1282 27.4231 11.037 27.2472 10.9001 27.1103L9.48652 25.6967L11.6972 23.4866L13.1096 24.9002C13.2463 25.0369 13.422 25.128 13.6126 25.161C13.8031 25.194 13.9992 25.1673 14.174 25.0845C14.3822 24.9855 14.5953 24.8971 14.8124 24.8196C14.9953 24.7551 15.1536 24.6355 15.2655 24.4772C15.3775 24.3189 15.4376 24.1297 15.4374 23.9359V21.9375H18.5624V23.9358C18.5623 24.1297 18.6224 24.3188 18.7343 24.4771C18.8463 24.6354 19.0046 24.755 19.1874 24.8195C19.4046 24.897 19.6177 24.9854 19.8259 25.0844C20.0006 25.1674 20.1967 25.1943 20.3874 25.1613C20.578 25.1282 20.7537 25.037 20.8903 24.9001L22.3027 23.4865L24.5134 25.6966L23.0998 27.1102C22.9629 27.2471 22.8717 27.423 22.8387 27.6138C22.8057 27.8046 22.8325 28.0009 22.9155 28.1759C23.0151 28.3829 23.1035 28.5953 23.1803 28.8119C23.2447 28.9948 23.3643 29.1533 23.5226 29.2653C23.6809 29.3774 23.8701 29.4375 24.0641 29.4375H26.0625V32.5625Z" fill="#0C2758"/>
<path d="M17 27.5625C16.3201 27.5625 15.6555 27.7641 15.0902 28.1418C14.5249 28.5195 14.0843 29.0564 13.8242 29.6845C13.564 30.3126 13.4959 31.0038 13.6286 31.6706C13.7612 32.3374 14.0886 32.9499 14.5693 33.4307C15.0501 33.9114 15.6626 34.2388 16.3294 34.3715C16.9962 34.5041 17.6874 34.436 18.3155 34.1758C18.9436 33.9157 19.4805 33.4751 19.8582 32.9098C20.2359 32.3445 20.4375 31.6799 20.4375 31C20.4366 30.0886 20.0741 29.2148 19.4297 28.5703C18.7852 27.9259 17.9114 27.5634 17 27.5625V27.5625ZM17 32.5625C16.691 32.5625 16.3889 32.4709 16.1319 32.2992C15.875 32.1275 15.6747 31.8835 15.5564 31.5979C15.4382 31.3124 15.4072 30.9983 15.4675 30.6952C15.5278 30.3921 15.6766 30.1137 15.8951 29.8951C16.1137 29.6766 16.3921 29.5278 16.6952 29.4675C16.9983 29.4072 17.3124 29.4382 17.5979 29.5564C17.8835 29.6747 18.1275 29.875 18.2992 30.1319C18.4709 30.3889 18.5625 30.691 18.5625 31C18.5621 31.4143 18.3974 31.8115 18.1044 32.1044C17.8115 32.3974 17.4143 32.5621 17 32.5625V32.5625Z" fill="#0C2758"/>
</svg>
