<svg width="82" height="23" viewBox="0 0 82 23" fill="none" xmlns="http://www.w3.org/2000/svg">
<path d="M0.100006 8.90001H5.20001V13.3L12.5 0.700012H18.1L9.40001 14L13.7 19.8H7.90001L5.20001 15V19.8H0.100006V8.90001Z" fill="white"/>
<path d="M13.7 8.90002H18.7V12.4H20.8V8.90002H25.9V19.8H20.8V15.8H18.7V19.8H13.7V8.90002V8.90002Z" fill="white"/>
<path d="M40.1 19.8H35.2V18.7C34.6 19.4 33.5 20.3 31.7 20.3C29.2 20.3 26.7 18.2 26.7 14.3C26.7 10.9 28.7 8.40002 31.7 8.40002C33.6 8.40002 34.6 9.30003 35.2 10.1V8.90002H40.1V19.8ZM35.4 14.3C35.4 13 34.6 12.2 33.5 12.2C32.4 12.2 31.6 13.1 31.6 14.3C31.6 15.6 32.4 16.4 33.5 16.4C34.6 16.4 35.4 15.6 35.4 14.3Z" fill="white"/>
<path d="M46.3 8.9V14.1L49.2 8.9H53.8V19.8H49V14.4L46.1 19.8H41.5V8.9H46.3ZM43.6 4H46.7C46.8 5.5 47.9 5.6 48.1 5.6C48.3 5.6 49.4 5.5 49.5 4H52.6C52.3 5.8 50.9 7.5 48.1 7.5C45.3 7.4 43.9 5.8 43.6 4Z" fill="white"/>
<path d="M67.7 8.90002V19.8H62.6V12.4H60.4V22.6H55.3V8.90002H67.7Z" fill="white"/>
<path d="M82 19.8H77.1V18.7C76.5 19.4 75.4 20.3 73.6 20.3C71.1 20.3 68.6 18.2 68.6 14.3C68.6 10.9 70.6 8.40002 73.6 8.40002C75.5 8.40002 76.5 9.30003 77.1 10.1V8.90002H82V19.8ZM77.3 14.3C77.3 13 76.5 12.2 75.4 12.2C74.3 12.2 73.5 13.1 73.5 14.3C73.5 15.6 74.3 16.4 75.4 16.4C76.5 16.4 77.3 15.6 77.3 14.3Z" fill="white"/>
</svg>
