<svg width="128" height="27" viewBox="0 0 128 27" fill="none" xmlns="http://www.w3.org/2000/svg">
<path d="M100.1 9.79999V20.8H98.2V11.6H93.2V20.8H91.3V9.79999H100.1Z" fill="white"/>
<path d="M104.3 27H102.4V9.8H104.3V11.3C105.6 9.7 107.2 9.5 108.1 9.5C111.5 9.5 113.5 12.4 113.5 15.3C113.5 18.3 111.6 21 108.2 21C106.4 21 105.2 20.2 104.4 19.1L104.3 27ZM111.5 15.4C111.5 12.7 109.7 11.3 107.9 11.3C106.1 11.3 104.2 12.8 104.2 15.4C104.2 17.7 105.6 19.5 107.9 19.5C110.1 19.4 111.5 17.6 111.5 15.4Z" fill="white"/>
<path d="M114.4 15.3C114.4 12 116.9 9.5 120.2 9.5C123.5 9.5 126 12 126 15.3C126 18.6 123.5 21.1 120.2 21.1C116.9 21.1 114.4 18.7 114.4 15.3ZM116.3 15.3C116.3 18 118.2 19.4 120.2 19.4C122.2 19.4 124.1 18 124.1 15.3C124.1 12.6 122.2 11.2 120.2 11.2C118.2 11.2 116.3 12.7 116.3 15.3Z" fill="white"/>
<path d="M3.10001 9.90001H8.20001V14.3L15.5 1.70001H21.1L12.4 15L16.7 20.8H10.9L8.20001 16V20.8H3.10001V9.90001Z" fill="white"/>
<path d="M16.7 9.90002H21.7V13.4H23.8V9.90002H28.9V20.8H23.8V16.8H21.7V20.8H16.7V9.90002V9.90002Z" fill="white"/>
<path d="M43.1 20.8H38.2V19.7C37.6 20.4 36.5 21.3 34.7 21.3C32.2 21.3 29.7 19.2 29.7 15.3C29.7 11.9 31.7 9.40002 34.7 9.40002C36.6 9.40002 37.6 10.3 38.2 11.1V9.90002H43.1V20.8ZM38.4 15.3C38.4 14 37.6 13.2 36.5 13.2C35.4 13.2 34.6 14.1 34.6 15.3C34.6 16.6 35.4 17.4 36.5 17.4C37.6 17.4 38.4 16.6 38.4 15.3Z" fill="white"/>
<path d="M49.3 9.9V15.1L52.2 9.9H56.8V20.8H52V15.4L49.1 20.8H44.5V9.9H49.3ZM46.6 5H49.7C49.8 6.5 50.9 6.6 51.1 6.6C51.3 6.6 52.4 6.5 52.5 5H55.6C55.3 6.8 53.9 8.5 51.1 8.5C48.3 8.4 46.9 6.8 46.6 5Z" fill="white"/>
<path d="M70.7 9.90002V20.8H65.6V13.4H63.4V23.6H58.3V9.90002H70.7Z" fill="white"/>
<path d="M85 20.8H80.1V19.7C79.5 20.4 78.4 21.3 76.6 21.3C74.1 21.3 71.6 19.2 71.6 15.3C71.6 11.9 73.6 9.40002 76.6 9.40002C78.5 9.40002 79.5 10.3 80.1 11.1V9.90002H85V20.8ZM80.3 15.3C80.3 14 79.5 13.2 78.4 13.2C77.3 13.2 76.5 14.1 76.5 15.3C76.5 16.6 77.3 17.4 78.4 17.4C79.5 17.4 80.3 16.6 80.3 15.3Z" fill="white"/>
</svg>
