<svg width="108" height="23" viewBox="0 0 108 23" fill="none" xmlns="http://www.w3.org/2000/svg">
<path d="M4.80001 1.59594H2.50001V7.76124H1.20001V0.316345H6.00001V7.87757H4.70001V1.59594H4.80001Z" fill="white"/>
<path d="M10.9 7.29592C10.7 7.41225 10.5 7.6449 10.1 7.76123C9.8 7.87755 9.4 7.99388 9.1 7.99388C8.4 7.99388 7.8 7.76123 7.5 7.1796C7.2 6.71429 7 6.01633 7 5.08572C7 4.15511 7.2 3.45715 7.6 2.99184C8 2.52654 8.5 2.29388 9.2 2.29388C9.4 2.29388 9.7 2.29388 9.9 2.41021C10.1 2.52654 10.3 2.64286 10.5 2.75919C10.7 2.87552 10.8 3.10817 10.9 3.45715C11 3.6898 11 4.03878 11 4.38776C11 4.50409 11 4.73674 11 4.85307C11 4.96939 11 5.20205 10.9 5.4347H8.1C8.1 5.9 8.2 6.24898 8.4 6.48164C8.6 6.71429 8.9 6.83062 9.3 6.83062C9.6 6.83062 9.8 6.83062 10 6.71429C10.2 6.59796 10.4 6.48164 10.5 6.48164L10.9 7.29592ZM9.2 3.34082C8.9 3.34082 8.7 3.45715 8.5 3.6898C8.4 3.92245 8.3 4.15511 8.2 4.62041H9.9C9.9 4.27143 9.9 3.92245 9.7 3.6898C9.6 3.45715 9.4 3.34082 9.2 3.34082Z" fill="white"/>
<path d="M11.9 2.41021H12.8L12.9 3.10817C13.1 2.87552 13.2 2.64286 13.5 2.52654C13.7 2.29388 14 2.29388 14.3 2.29388C14.9 2.29388 15.3 2.52654 15.6 2.87552C15.9 3.34082 16 4.03878 16 4.96939C16 5.4347 16 5.78368 15.9 6.24898C15.8 6.71429 15.7 6.94694 15.5 7.1796C15.3 7.41225 15.1 7.6449 14.8 7.76123C14.5 7.87755 14.2 7.99388 13.9 7.99388C13.7 7.99388 13.6 7.99388 13.4 7.99388C13.3 7.99388 13.2 7.87756 13 7.87756V10.0878H11.8V2.41021H11.9ZM13.9 3.45715C13.7 3.45715 13.5 3.57348 13.4 3.6898C13.3 3.80613 13.2 4.03878 13.1 4.27143V6.48164C13.2 6.59796 13.3 6.59796 13.4 6.71429C13.5 6.83062 13.6 6.83062 13.8 6.83062C14.1 6.83062 14.4 6.71429 14.6 6.36531C14.8 6.13266 14.9 5.66735 14.9 4.96939C14.9 4.50409 14.8 4.15511 14.7 3.92246C14.5 3.57348 14.2 3.45715 13.9 3.45715Z" fill="white"/>
<path d="M16.9 2.41021C17.1 2.41021 17.4 2.41021 17.7 2.29389C18 2.17756 18.3 2.29389 18.7 2.29389C19.4 2.29389 19.9 2.41021 20.1 2.64287C20.3 2.87552 20.5 3.2245 20.5 3.68981C20.5 3.92246 20.4 4.15511 20.3 4.38776C20.2 4.62042 20 4.85307 19.7 4.9694C20 5.08572 20.3 5.20205 20.4 5.4347C20.5 5.66736 20.6 5.90001 20.6 6.24899C20.6 6.83062 20.4 7.1796 20.1 7.41225C19.7 7.64491 19.2 7.76123 18.4 7.76123C18.1 7.76123 17.9 7.76123 17.6 7.76123C17.3 7.76123 17.1 7.76123 16.8 7.64491V2.41021H16.9ZM18.7 4.62042C18.9 4.62042 19.1 4.62042 19.2 4.50409C19.3 4.38776 19.4 4.27144 19.4 4.03879C19.4 3.80613 19.3 3.68981 19.2 3.57348C19.1 3.45715 18.9 3.45715 18.6 3.45715C18.5 3.45715 18.3 3.45715 18.3 3.45715C18.2 3.45715 18.1 3.45715 18.1 3.45715V4.62042H18.7ZM18 6.71429C18.1 6.71429 18.2 6.71429 18.2 6.71429C18.2 6.71429 18.4 6.71429 18.5 6.71429C18.8 6.71429 19.1 6.71429 19.2 6.59797C19.3 6.48164 19.4 6.36532 19.4 6.13266C19.4 5.90001 19.3 5.78368 19.2 5.66736C19.1 5.55103 18.9 5.4347 18.6 5.4347H18V6.71429Z" fill="white"/>
<path d="M21.5 2.75919C21.7 2.64286 22 2.52654 22.4 2.41021C22.7 2.41021 23.1 2.29388 23.4 2.29388C23.7 2.29388 24 2.29388 24.2 2.41021C24.4 2.52654 24.6 2.64286 24.7 2.75919C24.9 2.99184 25 3.2245 25 3.45715C25.1 3.6898 25.1 3.92245 25.1 4.27143C25.1 4.62041 25.1 4.85307 25.1 5.20205C25.1 5.55103 25.1 5.78368 25.1 6.13266C25.1 6.48164 25.1 6.71429 25.1 7.06327C25.1 7.29592 25.2 7.6449 25.2 7.87756H24.2L24 7.06327C23.9 7.29592 23.7 7.52858 23.5 7.6449C23.3 7.76123 23 7.87756 22.7 7.87756C22.5 7.87756 22.3 7.87755 22.1 7.76123C21.9 7.6449 21.8 7.52858 21.7 7.41225C21.6 7.29592 21.5 7.06327 21.4 6.94694C21.3 6.71429 21.3 6.59796 21.3 6.36531C21.3 6.01633 21.4 5.78368 21.5 5.55103C21.6 5.31837 21.8 5.08572 22 4.96939C22.2 4.85307 22.5 4.73674 22.8 4.73674C23.1 4.73674 23.5 4.62041 23.9 4.73674C23.9 4.38776 23.9 4.03878 23.8 3.92246C23.7 3.80613 23.5 3.45715 23.2 3.45715C23 3.45715 22.7 3.45715 22.4 3.57348C22.1 3.57348 21.9 3.6898 21.7 3.80613L21.5 2.75919ZM23 6.71429C23.2 6.71429 23.4 6.59796 23.6 6.48164C23.7 6.36531 23.8 6.24898 23.9 6.13266V5.4347C23.7 5.4347 23.5 5.4347 23.4 5.4347C23.2 5.4347 23.1 5.4347 22.9 5.55103C22.8 5.55103 22.7 5.66735 22.6 5.78368C22.5 5.90001 22.5 6.01633 22.5 6.13266C22.5 6.36531 22.6 6.48164 22.7 6.59796C22.8 6.71429 22.8 6.71429 23 6.71429Z" fill="white"/>
<path d="M28.5 5.78368L28 5.90001L27.1 7.76123H25.7L26.6 6.13266L27 5.66735C26.7 5.66735 26.4 5.4347 26.3 5.20205C26.1 4.96939 26 4.62041 26 4.15511C26 3.45715 26.2 2.99184 26.6 2.75919C27 2.52654 27.5 2.29388 28.2 2.29388C28.5 2.29388 28.8 2.29388 29 2.29388C29.2 2.29388 29.5 2.41021 29.7 2.41021V7.76123H28.5V5.78368ZM28.5 5.08572V3.57348C28.4 3.57348 28.4 3.45715 28.3 3.45715C28.2 3.45715 28.1 3.45715 28.1 3.45715C27.8 3.45715 27.6 3.57348 27.5 3.6898C27.3 3.80613 27.3 4.03878 27.3 4.27143C27.3 4.50409 27.4 4.73674 27.6 4.85307C27.8 4.96939 28 5.08572 28.3 5.08572H28.5Z" fill="white"/>
<path d="M35 3.57348L35.2 4.62042H35.3L35.4 3.57348L36.4 0.316339H37.7L36 5.4347C35.9 5.90001 35.7 6.24899 35.6 6.48164C35.5 6.83062 35.3 7.06327 35.2 7.1796C35.1 7.29593 34.9 7.52858 34.7 7.64491C34.5 7.76123 34.3 7.76123 34.1 7.76123C33.9 7.76123 33.7 7.76123 33.6 7.76123C33.5 7.76123 33.3 7.64491 33.2 7.52858L33.5 6.36532C33.6 6.48164 33.7 6.48164 33.8 6.48164C33.9 6.48164 34 6.48164 34.1 6.48164C34.4 6.48164 34.6 6.24899 34.7 5.66736L32.3 0.200012H33.8L35 3.57348Z" fill="white"/>
<path d="M39.2 5.55103H38.9V7.76124H37.7V2.41022H38.9V4.73675L39.2 4.62042L40.3 2.52654H41.6L40.5 4.62042L40 5.08573L40.5 5.55103L41.7 8.11021H40.3L39.2 5.55103Z" fill="white"/>
<path d="M42.2 2.41021H43.1L43.2 3.10817C43.4 2.87552 43.5 2.64286 43.8 2.52654C44 2.29388 44.3 2.29388 44.6 2.29388C45.2 2.29388 45.6 2.52654 45.9 2.87552C46.2 3.34082 46.3 4.03878 46.3 4.96939C46.3 5.4347 46.3 5.78368 46.2 6.24898C46.1 6.71429 46 6.94694 45.8 7.1796C45.6 7.41225 45.4 7.6449 45.1 7.76123C44.8 7.87755 44.5 7.99388 44.2 7.99388C44 7.99388 43.9 7.99388 43.7 7.99388C43.6 7.99388 43.5 7.87756 43.3 7.87756V10.0878H42.1V2.41021H42.2ZM44.2 3.45715C44 3.45715 43.8 3.57348 43.7 3.6898C43.6 3.80613 43.5 4.03878 43.4 4.27143V6.48164C43.5 6.59796 43.6 6.59796 43.7 6.71429C43.8 6.83062 43.9 6.83062 44.1 6.83062C44.4 6.83062 44.7 6.71429 44.9 6.36531C45.1 6.13266 45.2 5.66735 45.2 4.96939C45.2 4.50409 45.1 4.15511 45 3.92246C44.8 3.57348 44.5 3.45715 44.2 3.45715Z" fill="white"/>
<path d="M47.1 2.75919C47.3 2.64286 47.6 2.52654 48 2.41021C48.4 2.41021 48.7 2.29388 49.1 2.29388C49.4 2.29388 49.7 2.29388 49.9 2.41021C50.1 2.52654 50.3 2.64286 50.4 2.75919C50.5 2.87552 50.6 3.10817 50.7 3.34082C50.8 3.57348 50.8 3.80613 50.8 4.15511C50.8 4.50409 50.8 4.73674 50.8 5.08572C50.8 5.4347 50.8 5.66735 50.8 6.01633C50.8 6.36531 50.8 6.59796 50.8 6.94694C50.8 7.1796 50.9 7.52858 50.9 7.76123H49.9L49.7 7.06327C49.6 7.29592 49.4 7.52858 49.2 7.6449C49 7.76123 48.7 7.87756 48.4 7.87756C48.2 7.87756 48 7.87755 47.8 7.76123C47.6 7.6449 47.5 7.52858 47.4 7.41225C47.1 7.29592 47 7.1796 47 6.94694C46.9 6.71429 46.9 6.59796 46.9 6.36531C46.9 6.01633 47 5.78368 47.1 5.55103C47.2 5.31837 47.4 5.08572 47.6 4.96939C47.8 4.85307 48.1 4.73674 48.4 4.73674C48.7 4.73674 49.1 4.62041 49.5 4.73674C49.5 4.38776 49.5 4.03878 49.4 3.92246C49.3 3.80613 49.2 3.45715 48.9 3.45715C48.7 3.45715 48.4 3.45715 48.1 3.57348C47.8 3.57348 47.6 3.6898 47.4 3.80613L47.1 2.75919ZM48.7 6.71429C48.9 6.71429 49.1 6.59796 49.3 6.48164C49.4 6.36531 49.5 6.24898 49.6 6.13266V5.4347C49.4 5.4347 49.2 5.4347 49.1 5.4347C48.9 5.4347 48.8 5.4347 48.6 5.55103C48.5 5.55103 48.4 5.66735 48.3 5.78368C48.2 5.90001 48.2 6.01633 48.2 6.13266C48.2 6.36531 48.3 6.48164 48.4 6.59796C48.5 6.71429 48.5 6.71429 48.7 6.71429Z" fill="white"/>
<path d="M54.5 5.31838V4.50409L54.1 5.31838L52.5 7.76124H51.7V2.41022H53V4.9694L52.9 5.66736L53.3 4.85307L55 2.41022H55.8V7.76124H54.6V5.31838H54.5Z" fill="white"/>
<path d="M59.5 5.66736H58V7.76124H56.8V2.41022H58V4.38777H59.5V2.41022H60.7V7.76124H59.5V5.66736Z" fill="white"/>
<path d="M65 7.41225C64.8 7.52858 64.6 7.6449 64.3 7.76123C64 7.87755 63.8 7.87756 63.5 7.87756C63.1 7.87756 62.8 7.76123 62.6 7.6449C62.3 7.52858 62.1 7.29592 62 7.06327C61.8 6.83062 61.7 6.48164 61.7 6.13266C61.7 5.78368 61.6 5.4347 61.6 4.96939C61.6 4.03878 61.8 3.34082 62.1 2.87552C62.4 2.52654 62.9 2.29388 63.6 2.29388C63.9 2.29388 64.2 2.29388 64.4 2.41021C64.6 2.52654 64.8 2.52654 65 2.64286L64.7 3.80613C64.6 3.6898 64.4 3.6898 64.3 3.57348C64.1 3.57348 64 3.45715 63.8 3.45715C63.5 3.45715 63.2 3.57348 63 3.80613C62.8 4.03878 62.7 4.50409 62.7 4.96939C62.7 5.20205 62.7 5.4347 62.8 5.55103C62.8 5.78368 62.9 5.9 63 6.01633C63.1 6.13266 63.2 6.24898 63.3 6.36531C63.4 6.48164 63.6 6.48164 63.8 6.48164C64 6.48164 64.2 6.48164 64.3 6.36531C64.4 6.24898 64.6 6.24898 64.7 6.13266L65 7.41225Z" fill="white"/>
<path d="M67.3 5.55103H67V7.76124H65.8V2.41022H67V4.73675L67.3 4.62042L68.4 2.52654H69.7L68.6 4.62042L68 4.85307L68.5 5.31838L69.7 7.87756H68.3L67.3 5.55103Z" fill="white"/>
<path d="M70.2 2.75919C70.4 2.64286 70.7 2.52654 71.1 2.41021C71.4 2.41021 71.8 2.29388 72.2 2.29388C72.5 2.29388 72.8 2.29388 73 2.41021C73.2 2.52654 73.4 2.64286 73.5 2.75919C73.6 2.87552 73.7 3.10817 73.8 3.34082C73.9 3.57348 73.9 3.80613 73.9 4.15511C73.9 4.50409 73.9 4.73674 73.9 5.08572C73.9 5.4347 73.9 5.66735 73.9 6.01633C73.9 6.36531 73.9 6.59796 73.9 6.94694C73.9 7.1796 74 7.52858 74 7.76123H73L72.8 7.06327C72.7 7.29592 72.5 7.52858 72.3 7.6449C72.1 7.76123 71.8 7.87756 71.5 7.87756C71.3 7.87756 71.1 7.87755 70.9 7.76123C70.7 7.6449 70.6 7.52858 70.5 7.41225C70.4 7.29592 70.3 7.06327 70.2 6.94694C70.1 6.71429 70.1 6.59796 70.1 6.36531C70.1 6.01633 70.2 5.78368 70.3 5.55103C70.4 5.31837 70.6 5.08572 70.8 4.96939C71 4.85307 71.3 4.73674 71.6 4.73674C71.9 4.73674 72.3 4.62041 72.7 4.73674C72.7 4.38776 72.7 4.03878 72.6 3.92246C72.5 3.80613 72.3 3.45715 71.9 3.45715C71.7 3.45715 71.4 3.45715 71.1 3.57348C70.8 3.57348 70.6 3.6898 70.4 3.80613L70.2 2.75919ZM71.8 6.71429C72 6.71429 72.2 6.59796 72.4 6.48164C72.5 6.36531 72.6 6.24898 72.7 6.13266V5.4347C72.5 5.4347 72.3 5.4347 72.2 5.4347C72 5.4347 71.9 5.4347 71.7 5.55103C71.6 5.55103 71.5 5.66735 71.4 5.78368C71.3 5.90001 71.3 6.01633 71.3 6.13266C71.3 6.36531 71.4 6.48164 71.5 6.59796C71.6 6.71429 71.6 6.71429 71.8 6.71429Z" fill="white"/>
<path d="M77.3 5.78368L76.7 5.90001L75.8 7.76123H74.4L75.3 6.13266L75.8 5.78368C75.5 5.78368 75.2 5.55103 75.1 5.31837C74.9 5.08572 74.8 4.73674 74.8 4.27143C74.8 3.57348 75 3.10817 75.4 2.87552C75.8 2.64286 76.2 2.29388 77 2.29388C77.3 2.29388 77.6 2.29388 77.8 2.29388C78 2.29388 78.3 2.41021 78.5 2.41021V7.76123H77.3V5.78368ZM77.3 5.08572V3.57348C77.2 3.57348 77.2 3.45715 77.1 3.45715C77 3.45715 76.9 3.45715 76.9 3.45715C76.6 3.45715 76.4 3.57348 76.3 3.6898C76.1 3.80613 76.1 4.03878 76.1 4.27143C76.1 4.50409 76.2 4.73674 76.4 4.85307C76.6 4.96939 76.8 5.08572 77.1 5.08572H77.3Z" fill="white"/>
<path d="M4.50001 19.0449H2.50001L2.00001 20.6735H0.700012L3.00001 13.1122H4.00001L6.30001 20.6735H5.00001L4.50001 19.0449ZM2.80001 17.8816H4.20001L3.70001 16.2531L3.50001 15.0898L3.30001 16.2531L2.80001 17.8816Z" fill="white"/>
<path d="M10 20.3245C9.80001 20.4408 9.6 20.5571 9.3 20.6735C9 20.7898 8.80001 20.7898 8.50001 20.7898C8.10001 20.7898 7.80001 20.6735 7.60001 20.5571C7.30001 20.4408 7.10001 20.2081 7.00001 19.9755C6.80001 19.7428 6.70001 19.3939 6.70001 19.0449C6.70001 18.6959 6.60001 18.3469 6.60001 17.8816C6.60001 16.951 6.80001 16.253 7.10001 15.7877C7.50001 15.3224 8.00001 15.0898 8.60001 15.0898C8.90001 15.0898 9.20001 15.0898 9.40001 15.2061C9.60001 15.3224 9.80001 15.3224 10 15.4388L9.70001 16.602C9.60001 16.4857 9.4 16.4857 9.3 16.3694C9.2 16.3694 9 16.253 8.8 16.253C8.5 16.253 8.20001 16.3694 8.00001 16.602C7.80001 16.8347 7.70001 17.3 7.70001 17.7653C7.70001 17.9979 7.7 18.2306 7.8 18.3469C7.8 18.5796 7.90001 18.6959 8.00001 18.8122C8.10001 18.9286 8.2 19.0449 8.3 19.1612C8.4 19.2775 8.6 19.2775 8.8 19.2775C9 19.2775 9.2 19.2775 9.3 19.1612C9.4 19.0449 9.60001 19.0449 9.70001 18.9286L10 20.3245Z" fill="white"/>
<path d="M13.8 20.3245C13.6 20.4408 13.4 20.5571 13.1 20.6735C12.8 20.7898 12.6 20.7898 12.3 20.7898C11.9 20.7898 11.6 20.6735 11.4 20.5571C11.1 20.4408 10.9 20.2081 10.8 19.9755C10.6 19.7428 10.5 19.3939 10.5 19.0449C10.5 18.6959 10.4 18.3469 10.4 17.8816C10.4 16.951 10.6 16.253 10.9 15.7877C11.3 15.3224 11.8 15.0898 12.4 15.0898C12.7 15.0898 13 15.0898 13.2 15.2061C13.4 15.3224 13.6 15.3224 13.8 15.4388L13.5 16.602C13.4 16.4857 13.2 16.4857 13.1 16.3694C13 16.3694 12.8 16.253 12.6 16.253C12.3 16.253 12 16.3694 11.8 16.602C11.6 16.8347 11.5 17.3 11.5 17.7653C11.5 17.9979 11.5 18.2306 11.6 18.3469C11.6 18.5796 11.7 18.6959 11.8 18.8122C11.9 18.9286 12 19.0449 12.1 19.1612C12.2 19.2775 12.4 19.2775 12.6 19.2775C12.8 19.2775 13 19.2775 13.1 19.1612C13.2 19.0449 13.4 19.0449 13.5 18.9286L13.8 20.3245Z" fill="white"/>
<path d="M14.2 17.998C14.2 17.0673 14.4 16.3694 14.8 15.9041C15.2 15.4388 15.7 15.2061 16.4 15.2061C16.8 15.2061 17.1 15.3224 17.4 15.4388C17.7 15.5551 17.9 15.7877 18.1 16.0204C18.3 16.2531 18.4 16.602 18.5 16.951C18.6 17.3 18.6 17.649 18.6 18.1143C18.6 19.0449 18.4 19.7428 18 20.2082C17.6 20.6735 17.1 20.9061 16.4 20.9061C16 20.9061 15.7 20.7898 15.4 20.6735C15.1 20.5571 14.9 20.3245 14.7 20.0918C14.5 19.8592 14.4 19.5102 14.3 19.1612C14.2 18.8122 14.2 18.4633 14.2 17.998ZM15.4 17.998C15.4 18.2306 15.4 18.4633 15.5 18.6959C15.5 18.9286 15.6 19.0449 15.7 19.2775C15.8 19.3939 15.9 19.5102 16 19.6265C16.1 19.7428 16.3 19.7428 16.4 19.7428C16.7 19.7428 16.9 19.6265 17.1 19.3939C17.3 19.1612 17.3 18.6959 17.3 18.1143C17.3 17.649 17.2 17.1837 17.1 16.951C17 16.602 16.7 16.4857 16.4 16.4857C16.1 16.4857 15.9 16.602 15.7 16.8347C15.5 16.951 15.4 17.4163 15.4 17.998Z" fill="white"/>
<path d="M23.8 21.9531H23L22.9 20.6735H19.4V15.3224H20.6V19.5102H22V15.3224H23.2V19.5102H23.9V21.9531H23.8Z" fill="white"/>
<path d="M27.3 18.2306V17.4163L26.9 18.2306L25.3 20.6735H24.5V15.3224H25.7V17.8816L25.6 18.5796L26 17.7653L27.7 15.2061H28.5V20.5571H27.3V18.2306Z" fill="white"/>
<path d="M29.5 15.6714C29.7 15.5551 30 15.4388 30.4 15.3224C30.7 15.2061 31.1 15.2061 31.5 15.2061C31.8 15.2061 32.1 15.2061 32.3 15.3224C32.5 15.4388 32.7 15.5551 32.8 15.6714C32.9 15.7877 33 16.0204 33.1 16.2531C33.2 16.4857 33.2 16.7184 33.2 17.0673C33.2 17.4163 33.2 17.649 33.2 17.998C33.2 18.3469 33.2 18.5796 33.2 18.9286C33.2 19.2775 33.2 19.5102 33.2 19.8592C33.2 20.0918 33.3 20.4408 33.3 20.6735H32.3L32 19.9755C31.9 20.2082 31.7 20.4408 31.5 20.5571C31.3 20.6735 31 20.7898 30.7 20.7898C30.5 20.7898 30.3 20.7898 30.1 20.6735C29.9 20.5571 29.8 20.4408 29.7 20.3245C29.6 20.2082 29.5 19.9755 29.4 19.8592C29.3 19.6265 29.3 19.5102 29.3 19.2775C29.3 18.9286 29.4 18.6959 29.5 18.4633C29.6 18.2306 29.8 17.998 30 17.8816C30.2 17.7653 30.5 17.649 30.8 17.649C31.1 17.649 31.5 17.5326 31.9 17.649C31.9 17.3 31.9 16.951 31.8 16.8347C31.7 16.7184 31.5 16.602 31.2 16.602C31 16.602 30.7 16.602 30.4 16.7184C30.1 16.7184 29.9 16.8347 29.7 16.951L29.5 15.6714ZM31 19.6265C31.2 19.6265 31.4 19.5102 31.6 19.3939C31.7 19.2775 31.8 19.1612 31.9 19.0449V18.3469C31.7 18.3469 31.5 18.3469 31.4 18.3469C31.2 18.3469 31.1 18.3469 30.9 18.4633C30.8 18.4633 30.7 18.5796 30.6 18.6959C30.5 18.8122 30.5 18.9286 30.5 19.0449C30.5 19.2775 30.6 19.3939 30.7 19.5102C30.8 19.6265 30.8 19.6265 31 19.6265Z" fill="white"/>
<path d="M38.6 21.9531H37.7L37.6 20.6735H34.1V15.3224H35.3V19.5102H36.7V15.3224H37.9V19.5102H38.6V21.9531V21.9531Z" fill="white"/>
<path d="M42 18.2306V17.4163L41.6 18.2306L40 20.6735H39.2V15.3224H40.4V17.8816V18.5796L40.8 17.7653L42.5 15.2061H43.3V20.5571H42V18.2306Z" fill="white"/>
<path d="M46.7 18.6959L46.1 18.8122L45.2 20.6735H43.8L44.7 19.0449L45.2 18.6959C44.9 18.6959 44.6 18.4633 44.5 18.2306C44.3 17.998 44.2 17.649 44.2 17.1837C44.2 16.4857 44.4 16.0204 44.8 15.7878C45.2 15.5551 45.7 15.3224 46.5 15.3224C46.8 15.3224 47.1 15.3224 47.3 15.3224C47.5 15.3224 47.8 15.4388 48 15.4388V20.7898H46.8V18.6959H46.7ZM46.7 17.8816V16.3694C46.6 16.3694 46.6 16.2531 46.5 16.2531C46.4 16.2531 46.3 16.2531 46.3 16.2531C46 16.2531 45.8 16.3694 45.7 16.4857C45.5 16.602 45.5 16.8347 45.5 17.0673C45.5 17.3 45.6 17.5327 45.8 17.649C46 17.7653 46.2 17.8816 46.5 17.8816H46.7Z" fill="white"/>
<path d="M51.3 20.6735V13.1122H52.6V19.2775H54.1V13.1122H55.4V19.2775H56.9V13.1122H58.2V20.6735H51.3Z" fill="white"/>
<path d="M62.9 20.2082C62.7 20.3245 62.5 20.5571 62.1 20.6735C61.8 20.7898 61.4 20.9061 61.1 20.9061C60.4 20.9061 59.8 20.6735 59.5 20.0918C59.2 19.6265 59 18.9286 59 17.998C59 17.0673 59.2 16.3694 59.6 15.9041C60 15.4388 60.5 15.2061 61.2 15.2061C61.4 15.2061 61.7 15.2061 61.9 15.3224C62.1 15.4388 62.3 15.5551 62.5 15.6714C62.7 15.7877 62.8 16.0204 62.9 16.3694C63 16.602 63.1 16.951 63.1 17.4163C63.1 17.5326 63.1 17.7653 63.1 17.8816C63.1 17.998 63.1 18.2306 63 18.4633H60.2C60.2 18.9286 60.3 19.2775 60.5 19.5102C60.7 19.7428 61 19.8592 61.4 19.8592C61.7 19.8592 61.9 19.8592 62.1 19.7428C62.3 19.6265 62.5 19.5102 62.6 19.5102L62.9 20.2082ZM61.2 16.2531C60.9 16.2531 60.7 16.3694 60.5 16.602C60.4 16.8347 60.3 17.0673 60.2 17.5326H62C62 17.1837 62 16.8347 61.8 16.602C61.7 16.3694 61.5 16.2531 61.2 16.2531Z" fill="white"/>
<path d="M66 20.7898C65.9 20.7898 65.8 20.9061 65.7 20.9061C65.6 20.9061 65.5 20.9061 65.4 20.9061C64.8 20.9061 64.4 20.6735 64.1 20.2082C63.8 19.7429 63.6 19.0449 63.6 18.1143C63.6 17.1837 63.8 16.4857 64.1 16.0204C64.4 15.5551 64.9 15.3225 65.5 15.3225C65.7 15.3225 65.8 15.3225 65.9 15.3225V13.2286H67.1V15.3225C67.2 15.3225 67.3 15.3225 67.4 15.3225C67.5 15.3225 67.6 15.3225 67.6 15.3225C68.2 15.3225 68.7 15.5551 69 15.9041C69.3 16.3694 69.5 16.951 69.5 17.998C69.5 18.4633 69.5 18.8122 69.4 19.1612C69.3 19.5102 69.2 19.8592 69 20.0918C68.8 20.3245 68.6 20.5571 68.4 20.6735C68.2 20.7898 67.9 20.9061 67.6 20.9061C67.5 20.9061 67.5 20.9061 67.4 20.9061C67.3 20.9061 67.2 20.9061 67.1 20.7898V22.8837H66V20.7898ZM65.7 19.7429C65.8 19.7429 65.8 19.7429 65.9 19.7429C66 19.7429 66 19.7429 66.1 19.7429V16.3694C66 16.3694 65.9 16.3694 65.7 16.3694C65.4 16.3694 65.2 16.4857 65 16.7184C64.8 16.951 64.8 17.4163 64.8 17.998C64.8 18.5796 64.9 18.9286 65 19.2776C65.2 19.6265 65.4 19.7429 65.7 19.7429ZM67.5 16.2531C67.4 16.2531 67.4 16.2531 67.3 16.2531C67.2 16.2531 67.2 16.2531 67.1 16.2531V19.7429C67.1 19.7429 67.2 19.7429 67.3 19.7429C67.4 19.7429 67.4 19.7429 67.5 19.7429C67.8 19.7429 68 19.6265 68.1 19.2776C68.2 19.0449 68.3 18.5796 68.3 17.8816C68.3 17.3 68.2 16.951 68.1 16.7184C68 16.4857 67.8 16.2531 67.5 16.2531Z" fill="white"/>
<path d="M70.3 16.951H72.6V18.2306H70.3V16.951Z" fill="white"/>
<path d="M77.2 14.5082H75V20.6735H73.7V13.1122H78.5V20.6735H77.2V14.5082Z" fill="white"/>
<path d="M79.3 17.998C79.3 17.0673 79.5 16.3694 79.9 15.9041C80.3 15.4388 80.8 15.2061 81.5 15.2061C81.9 15.2061 82.2 15.3224 82.5 15.4388C82.8 15.5551 83 15.7877 83.2 16.0204C83.4 16.2531 83.5 16.602 83.6 16.951C83.7 17.3 83.7 17.649 83.7 18.1143C83.7 19.0449 83.5 19.7428 83.1 20.2082C82.7 20.6735 82.2 20.9061 81.5 20.9061C81.1 20.9061 80.8 20.7898 80.5 20.6735C80.2 20.5571 80 20.3245 79.8 20.0918C79.6 19.8592 79.5 19.5102 79.4 19.1612C79.3 18.8122 79.3 18.4633 79.3 17.998ZM80.6 17.998C80.6 18.2306 80.6 18.4633 80.7 18.6959C80.7 18.9286 80.8 19.0449 80.9 19.2775C81 19.3939 81.1 19.5102 81.2 19.6265C81.3 19.7428 81.5 19.7428 81.6 19.7428C81.9 19.7428 82.1 19.6265 82.3 19.3939C82.5 19.1612 82.5 18.6959 82.5 18.1143C82.5 17.649 82.4 17.1837 82.3 16.951C82.2 16.602 81.9 16.4857 81.6 16.4857C81.3 16.4857 81.1 16.602 80.9 16.8347C80.7 16.951 80.6 17.4163 80.6 17.998Z" fill="white"/>
<path d="M84.5 15.3224C84.7 15.3224 85 15.3224 85.3 15.2061C85.6 15.0898 85.9 15.2061 86.3 15.2061C87 15.2061 87.5 15.3224 87.7 15.5551C87.9 15.7878 88.1 16.1367 88.1 16.602C88.1 16.8347 88 17.0673 87.9 17.3C87.8 17.5326 87.6 17.7653 87.3 17.7653C87.6 17.8816 87.9 17.998 88 18.2306C88.1 18.4633 88.2 18.6959 88.2 19.0449C88.2 19.6265 88 19.9755 87.7 20.2082C87.3 20.4408 86.8 20.5571 86 20.5571C85.7 20.5571 85.5 20.5571 85.2 20.5571C84.9 20.5571 84.7 20.5571 84.4 20.4408V15.3224H84.5ZM86.3 17.5326C86.5 17.5326 86.7 17.5326 86.8 17.4163C86.9 17.3 87 17.1837 87 16.951C87 16.7184 86.9 16.602 86.8 16.4857C86.7 16.3694 86.5 16.3694 86.2 16.3694C86.1 16.3694 85.9 16.3694 85.9 16.3694C85.8 16.3694 85.7 16.3694 85.7 16.3694V17.5326H86.3ZM85.7 19.6265C85.8 19.6265 85.9 19.6265 85.9 19.6265C85.9 19.6265 86.1 19.6265 86.2 19.6265C86.5 19.6265 86.8 19.6265 86.9 19.5102C87 19.3939 87.1 19.2775 87.1 19.0449C87.1 18.8122 87 18.6959 86.9 18.5796C86.8 18.4633 86.6 18.3469 86.3 18.3469H85.7V19.6265V19.6265Z" fill="white"/>
<path d="M89.2 15.6714C89.4 15.5551 89.7 15.4388 90.1 15.3224C90.4 15.2061 90.8 15.2061 91.2 15.2061C91.5 15.2061 91.8 15.2061 92 15.3224C92.2 15.4388 92.4 15.5551 92.5 15.6714C92.6 15.7877 92.7 16.0204 92.8 16.2531C92.9 16.4857 92.9 16.7184 92.9 17.0673C92.9 17.4163 92.9 17.649 92.9 17.998C92.9 18.3469 92.9 18.5796 92.9 18.9286C92.9 19.2775 92.9 19.5102 92.9 19.8592C92.9 20.0918 93 20.4408 93 20.6735H92L91.8 19.9755C91.7 20.2082 91.5 20.4408 91.3 20.5571C91.1 20.6735 90.8 20.7898 90.5 20.7898C90.3 20.7898 90.1 20.7898 89.9 20.6735C89.7 20.5571 89.6 20.4408 89.5 20.3245C89.4 20.2082 89.3 19.9755 89.2 19.8592C89.1 19.6265 89.1 19.5102 89.1 19.2775C89.1 18.9286 89.2 18.6959 89.3 18.4633C89.4 18.2306 89.6 17.998 89.8 17.8816C90 17.7653 90.3 17.649 90.6 17.649C90.9 17.649 91.3 17.5326 91.7 17.649C91.7 17.3 91.7 16.951 91.6 16.8347C91.5 16.7184 91.3 16.602 91 16.602C90.8 16.602 90.5 16.602 90.2 16.7184C89.9 16.7184 89.7 16.8347 89.5 16.951L89.2 15.6714ZM90.7 19.6265C90.9 19.6265 91.1 19.5102 91.3 19.3939C91.4 19.2775 91.5 19.1612 91.6 19.0449V18.3469C91.4 18.3469 91.2 18.3469 91.1 18.3469C90.9 18.3469 90.8 18.3469 90.6 18.4633C90.5 18.4633 90.4 18.5796 90.3 18.6959C90.2 18.8122 90.2 18.9286 90.2 19.0449C90.2 19.2775 90.3 19.3939 90.4 19.5102C90.5 19.6265 90.5 19.6265 90.7 19.6265Z" fill="white"/>
<path d="M93.8 15.3224H94.7L94.8 16.0204C95 15.7877 95.1 15.5551 95.4 15.4388C95.6 15.3224 95.9 15.2061 96.2 15.2061C96.8 15.2061 97.2 15.4388 97.5 15.7877C97.8 16.2531 97.9 16.951 97.9 17.8816C97.9 18.3469 97.9 18.6959 97.8 19.1612C97.7 19.6265 97.6 19.8592 97.4 20.0918C97.2 20.3245 97 20.5571 96.7 20.6735C96.4 20.7898 96.1 20.9061 95.8 20.9061C95.6 20.9061 95.5 20.9061 95.3 20.9061C95.2 20.9061 95.1 20.7898 94.9 20.7898V23H93.7V15.3224H93.8ZM95.8 16.3694C95.6 16.3694 95.4 16.4857 95.3 16.602C95.2 16.7184 95.1 16.951 95 17.1837V19.3939C95.1 19.5102 95.2 19.5102 95.3 19.6265C95.4 19.7428 95.5 19.7428 95.7 19.7428C96 19.7428 96.3 19.6265 96.5 19.2775C96.7 19.0449 96.8 18.5796 96.8 17.8816C96.8 17.4163 96.7 17.0673 96.6 16.8347C96.3 16.4857 96.1 16.3694 95.8 16.3694Z" fill="white"/>
<path d="M98.5 17.998C98.5 17.0673 98.7 16.3694 99.1 15.9041C99.5 15.4388 100 15.2061 100.7 15.2061C101.1 15.2061 101.4 15.3224 101.7 15.4388C102 15.5551 102.2 15.7877 102.4 16.0204C102.6 16.2531 102.7 16.602 102.8 16.951C102.9 17.3 102.9 17.649 102.9 18.1143C102.9 19.0449 102.7 19.7428 102.3 20.2082C101.9 20.6735 101.4 20.9061 100.7 20.9061C100.3 20.9061 100 20.7898 99.7 20.6735C99.4 20.5571 99.2 20.3245 99 20.0918C98.8 19.8592 98.7 19.5102 98.6 19.1612C98.5 18.8122 98.5 18.4633 98.5 17.998ZM99.8 17.998C99.8 18.2306 99.8 18.4633 99.9 18.6959C99.9 18.9286 100 19.0449 100.1 19.2775C100.2 19.3939 100.3 19.5102 100.4 19.6265C100.5 19.7428 100.7 19.7428 100.8 19.7428C101.1 19.7428 101.3 19.6265 101.5 19.3939C101.7 19.1612 101.7 18.6959 101.7 18.1143C101.7 17.649 101.6 17.1837 101.5 16.951C101.4 16.602 101.1 16.4857 100.8 16.4857C100.5 16.4857 100.3 16.602 100.1 16.8347C99.8 16.951 99.8 17.4163 99.8 17.998Z" fill="white"/>
<path d="M103.7 15.3224C103.9 15.3224 104.2 15.3224 104.5 15.2061C104.8 15.0898 105.1 15.2061 105.5 15.2061C106.2 15.2061 106.7 15.3224 106.9 15.5551C107.1 15.7878 107.3 16.1367 107.3 16.602C107.3 16.8347 107.2 17.0673 107.1 17.3C107 17.5326 106.8 17.7653 106.5 17.7653C106.8 17.8816 107.1 17.998 107.2 18.2306C107.3 18.4633 107.4 18.6959 107.4 19.0449C107.4 19.6265 107.2 19.9755 106.9 20.2082C106.5 20.4408 106 20.5571 105.2 20.5571C104.9 20.5571 104.7 20.5571 104.4 20.5571C104.1 20.5571 103.9 20.5571 103.6 20.4408V15.3224H103.7ZM105.5 17.5326C105.7 17.5326 105.9 17.5326 106 17.4163C106.1 17.3 106.2 17.1837 106.2 16.951C106.2 16.7184 106.1 16.602 106 16.4857C105.9 16.3694 105.7 16.3694 105.4 16.3694C105.3 16.3694 105.1 16.3694 105.1 16.3694C105 16.3694 104.9 16.3694 104.9 16.3694V17.5326H105.5ZM104.9 19.6265C105 19.6265 105.1 19.6265 105.1 19.6265C105.1 19.6265 105.3 19.6265 105.4 19.6265C105.7 19.6265 106 19.6265 106.1 19.5102C106.2 19.3939 106.3 19.2775 106.3 19.0449C106.3 18.8122 106.2 18.6959 106.1 18.5796C106 18.4633 105.8 18.3469 105.5 18.3469H104.9V19.6265V19.6265Z" fill="white"/>
</svg>
