<svg width="120" height="19" viewBox="0 0 120 19" fill="none" xmlns="http://www.w3.org/2000/svg">
<path d="M6.00001 14L2.90001 4.00002H2.80001C2.90001 6.00002 3.00001 7.40002 3.00001 8.10002V14H0.600006V1.30002H4.30001L7.30001 11H7.40001L10.6 1.30002H14.3V14H11.8V8.00002C11.8 7.70002 11.8 7.40002 11.8 7.00002C11.8 6.60002 11.8 5.60002 11.9 4.00002H11.8L8.40001 14H6.00001Z" fill="white"/>
<path d="M23.3 14L22.8 12.7H22.7C22.3 13.3 21.8 13.7 21.3 13.9C20.8 14.1 20.2 14.2 19.5 14.2C18.6 14.2 17.8 13.9 17.3 13.4C16.8 12.9 16.5 12.1 16.5 11.1C16.5 10.1 16.9 9.3 17.6 8.8C18.3 8.3 19.4 8 20.9 8L22.6 7.9V7.5C22.6 6.5 22.1 6 21.1 6C20.3 6 19.4 6.2 18.4 6.7L17.5 4.9C18.6 4.3 19.9 4 21.2 4C22.5 4 23.5 4.3 24.2 4.9C24.9 5.5 25.2 6.3 25.2 7.5V14H23.3ZM22.5 9.5H21.5C20.7 9.5 20.2 9.7 19.8 9.9C19.4 10.1 19.2 10.5 19.2 11.1C19.2 11.8 19.6 12.2 20.5 12.2C21.1 12.2 21.6 12 22 11.7C22.4 11.4 22.6 10.9 22.6 10.3V9.5H22.5Z" fill="white"/>
<path d="M34.6 4.30002V6.30002H30.5V14H27.9V4.30002H34.6Z" fill="white"/>
<path d="M39.1 4.30002V8.00002H42.8V4.30002H45.4V14H42.8V10H39.1V14H36.5V4.30002H39.1Z" fill="white"/>
<path d="M54.4 14L53.9 12.7H53.8C53.4 13.3 52.9 13.7 52.4 13.9C51.9 14.1 51.3 14.2 50.6 14.2C49.7 14.2 48.9 13.9 48.4 13.4C47.9 12.9 47.6 12.1 47.6 11.1C47.6 10.1 48 9.3 48.7 8.8C49.4 8.3 50.5 8 52 8L53.7 7.9V7.5C53.7 6.5 53.2 6 52.2 6C51.4 6 50.5 6.2 49.5 6.7L48.6 4.9C49.7 4.3 51 4 52.3 4C53.6 4 54.6 4.3 55.3 4.9C56 5.5 56.3 6.3 56.3 7.5V14H54.4ZM53.6 9.5H52.6C51.8 9.5 51.3 9.7 50.9 9.9C50.5 10.1 50.3 10.5 50.3 11.1C50.3 11.8 50.7 12.2 51.6 12.2C52.2 12.2 52.7 12 53.1 11.7C53.5 11.4 53.7 10.9 53.7 10.3V9.5H53.6Z" fill="white"/>
<path d="M67 4.30002V6.30002H63.8V14H61.2V6.30002H58V4.30002H67Z" fill="white"/>
<path d="M73 14H71.5V2.60002H67.5V1.30002H77V2.60002H73V14Z" fill="white"/>
<path d="M83.2 14.2C82.6 14.2 82 14.1 81.5 13.9C81 13.7 80.6 13.3 80.2 12.8H80.1C80.2 13.4 80.2 13.9 80.2 14.4V18.3H78.8V4.49999H80L80.2 5.79999H80.3C80.7 5.29999 81.1 4.89999 81.6 4.69999C82.1 4.49999 82.7 4.39999 83.3 4.39999C84.6 4.39999 85.5 4.79999 86.2 5.69999C86.9 6.59999 87.2 7.79999 87.2 9.29999C87.2 10.9 86.9 12.1 86.2 12.9C85.4 13.7 84.4 14.2 83.2 14.2ZM83 5.49999C82 5.49999 81.3 5.79999 80.9 6.29999C80.5 6.79999 80.2 7.69999 80.2 8.89999V9.19999C80.2 10.5 80.4 11.5 80.9 12.1C81.3 12.7 82.1 13 83 13C83.8 13 84.5 12.7 84.9 12C85.4 11.3 85.6 10.4 85.6 9.19999C85.6 7.99999 85.4 7.09999 84.9 6.49999C84.5 5.79999 83.8 5.49999 83 5.49999Z" fill="white"/>
<path d="M93.7 14.2C92.3 14.2 91.2 13.8 90.4 12.9C89.6 12 89.2 10.9 89.2 9.30001C89.2 7.80001 89.6 6.50001 90.3 5.60001C91.1 4.70001 92.1 4.20001 93.3 4.20001C94.5 4.20001 95.4 4.60001 96.1 5.40001C96.8 6.20001 97.1 7.20001 97.1 8.50001V9.40001H90.5C90.5 10.5 90.8 11.4 91.3 11.9C91.8 12.5 92.6 12.8 93.6 12.8C94.6 12.8 95.6 12.6 96.6 12.2V13.5C96.1 13.7 95.6 13.9 95.2 14C94.9 14.1 94.3 14.2 93.7 14.2ZM93.3 5.50001C92.5 5.50001 91.9 5.70001 91.5 6.20001C91 6.70001 90.8 7.40001 90.7 8.30001H95.7C95.7 7.40001 95.5 6.70001 95.1 6.20001C94.7 5.70001 94 5.50001 93.3 5.50001Z" fill="white"/>
<path d="M101 4.50001V10.5L100.9 12.1V12.6L106.1 4.50001H107.9V14H106.6V8.20001V7.10001V6.00001L101.5 14.1H99.7V4.60001H101V4.50001ZM103.7 3.20001C102.6 3.20001 101.8 3.00001 101.4 2.60001C101 2.20001 100.6 1.50001 100.6 0.600006H102C102.1 1.20001 102.2 1.60001 102.5 1.90001C102.8 2.10001 103.2 2.30001 103.9 2.30001C104.5 2.30001 104.9 2.20001 105.2 1.90001C105.5 1.60001 105.7 1.20001 105.7 0.700006H107.1C107 1.60001 106.7 2.30001 106.2 2.70001C105.6 3.00001 104.8 3.20001 103.7 3.20001Z" fill="white"/>
<path d="M119.2 17.3H117.8V14H111.1V17.3H109.7V12.8H110.4C111.2 11.7 111.8 10.5 112.2 9.1C112.6 7.7 112.9 6.2 112.9 4.5H117.7V12.8H119.1V17.3H119.2ZM116.4 12.7V5.6H114.3C114.2 6.9 114 8.2 113.6 9.5C113.2 10.8 112.7 11.9 112 12.7H116.4Z" fill="white"/>
</svg>
