<svg width="73" height="60" viewBox="0 0 73 60" fill="none" xmlns="http://www.w3.org/2000/svg">
<path d="M0.815716 60H16.608C16.8243 60 17.0318 59.9294 17.1848 59.8038C17.3378 59.6782 17.4237 59.5078 17.4237 59.3302V53.6299C22.9773 56.1894 29.2376 57.5363 35.606 57.5417H59.066C64.5395 57.5417 67.6881 56.4633 71.5383 53.2615C72.3927 52.5336 72.9063 51.5812 72.9884 50.5724C73.0705 49.5637 72.7158 48.5636 71.987 47.7488L71.8401 47.5814C71.4257 47.1156 70.8989 46.7247 70.2927 46.4332C69.6865 46.1417 69.0137 45.9556 68.3162 45.8867C67.5855 45.8223 66.8464 45.8818 66.1449 46.0616C65.4433 46.2413 64.7941 46.5374 64.2377 46.9316C61.2032 49.0684 59.3434 49.6109 55.1343 49.6109H54.8977V47.9163C54.8934 46.6211 54.2644 45.3802 53.1483 44.465C52.0323 43.5498 50.5202 43.035 48.943 43.0332H38.4692C37.6535 41.9079 34.8719 38.6458 29.9776 38.6458H17.4237V36.6698C17.4237 36.4922 17.3378 36.3218 17.1848 36.1962C17.0318 36.0706 16.8243 36 16.608 36H0.815716C0.599375 36 0.391894 36.0706 0.238918 36.1962C0.0859414 36.3218 0 36.4922 0 36.6698V59.3302C0 59.5078 0.0859414 59.6782 0.238918 59.8038C0.391894 59.9294 0.599375 60 0.815716 60ZM17.4237 39.9855H29.9776C34.7414 39.9855 37.2456 43.9643 37.2701 44.0045C37.3379 44.1149 37.4416 44.2078 37.5697 44.2728C37.6979 44.3379 37.8454 44.3725 37.9961 44.3729H48.894C50.0386 44.3746 51.1357 44.7483 51.9458 45.4123C52.7559 46.0762 53.213 46.9764 53.2173 47.9163V49.6176H37.9879C37.7716 49.6176 37.5641 49.6882 37.4111 49.8138C37.2581 49.9394 37.1722 50.1098 37.1722 50.2875C37.1722 50.4651 37.2581 50.6355 37.4111 50.7611C37.5641 50.8867 37.7716 50.9573 37.9879 50.9573H55.1179C59.686 50.9573 61.9618 50.2875 65.2818 47.9498C65.6713 47.6739 66.1257 47.4667 66.6169 47.3411C67.108 47.2155 67.6254 47.1741 68.1368 47.2196C68.6209 47.2609 69.089 47.3854 69.5106 47.5851C69.9322 47.7847 70.2979 48.0551 70.5839 48.3785L70.7226 48.5392C71.2249 49.0968 71.4716 49.782 71.4194 50.4742C71.3672 51.1664 71.0194 51.8213 70.4371 52.3238C66.8969 55.2576 64.1479 56.2021 59.1231 56.2021H35.606C29.2076 56.2035 22.9269 54.7898 17.4237 52.1094V39.9855ZM1.63143 37.3397H15.7923V58.6603H1.63143V37.3397Z" fill="#0C2758"/>
<path d="M64.2726 26.8936C64.4655 26.8936 64.6506 26.817 64.787 26.6807C64.9234 26.5445 65 26.3596 65 26.1669V20.8258C65 20.6331 64.9234 20.4483 64.787 20.312C64.6506 20.1757 64.4655 20.0992 64.2726 20.0992H60.8031C60.5694 19.3444 60.2624 18.6143 59.8867 17.9191L62.3451 15.463C62.4806 15.3268 62.5567 15.1426 62.5567 14.9507C62.5567 14.7587 62.4806 14.5745 62.3451 14.4383L58.5774 10.6742C58.4412 10.5388 58.2568 10.4629 58.0646 10.4629C57.8725 10.4629 57.6881 10.5388 57.5519 10.6742L55.0934 13.0867C54.3988 12.7107 53.6676 12.4064 52.9113 12.1784V8.72668C52.9113 8.53395 52.8347 8.34912 52.6983 8.21284C52.5619 8.07656 52.3769 8 52.184 8H46.8379C46.645 8 46.46 8.07656 46.3236 8.21284C46.1871 8.34912 46.1105 8.53395 46.1105 8.72668V12.2002C45.3542 12.4282 44.6231 12.7325 43.9284 13.1085L41.47 10.6524C41.3337 10.517 41.1493 10.4411 40.9572 10.4411C40.765 10.4411 40.5807 10.517 40.4444 10.6524L36.6767 14.4166C36.5412 14.5527 36.4652 14.7369 36.4652 14.9289C36.4652 15.1208 36.5412 15.305 36.6767 15.4412L39.1351 17.8973C38.7594 18.5925 38.4525 19.3226 38.2187 20.0774H34.7274C34.5345 20.0774 34.3494 20.1539 34.213 20.2902C34.0766 20.4265 34 20.6113 34 20.804V26.1669C34 26.3596 34.0766 26.5445 34.213 26.6807C34.3494 26.817 34.5345 26.8936 34.7274 26.8936H38.1969C38.4293 27.6488 38.7363 28.3791 39.1133 29.0736L36.6549 31.5298C36.5194 31.6659 36.4433 31.8501 36.4433 32.0421C36.4433 32.2341 36.5194 32.4182 36.6549 32.5544L40.4226 36.3404C40.5589 36.4757 40.7432 36.5517 40.9354 36.5517C41.1275 36.5517 41.3119 36.4757 41.4481 36.3404L43.9066 33.8842C44.6024 34.2596 45.3332 34.5663 46.0887 34.7998V38.2733C46.0887 38.4661 46.1653 38.6509 46.3017 38.7872C46.4381 38.9234 46.6231 39 46.816 39H52.1403C52.3332 39 52.5182 38.9234 52.6546 38.7872C52.791 38.6509 52.8677 38.4661 52.8677 38.2733V34.778C53.6231 34.5445 54.3539 34.2378 55.0497 33.8624L57.5519 36.3404C57.6881 36.4757 57.8725 36.5517 58.0646 36.5517C58.2568 36.5517 58.4412 36.4757 58.5774 36.3404L62.3451 32.5762C62.4806 32.44 62.5567 32.2559 62.5567 32.0639C62.5567 31.8719 62.4806 31.6877 62.3451 31.5516L59.8649 29.0736C60.2419 28.3791 60.5489 27.6488 60.7813 26.8936H64.2726ZM59.5375 25.9925C59.2886 26.9952 58.8915 27.9553 58.3592 28.8411C58.2742 28.9806 58.2387 29.1447 58.2585 29.3069C58.2783 29.4691 58.3522 29.6198 58.4683 29.7349L60.8031 32.0675L58.0683 34.7998L55.7262 32.4672C55.6115 32.3529 55.462 32.2801 55.3012 32.2604C55.1405 32.2406 54.9778 32.2751 54.8388 32.3582C53.9525 32.8922 52.9916 33.2915 51.9876 33.5427C51.8262 33.5824 51.6833 33.6763 51.5827 33.8085C51.4821 33.9407 51.4299 34.1033 51.4348 34.2693V37.5684H47.5652V34.2257C47.5701 34.0597 47.5179 33.8971 47.4173 33.7649C47.3167 33.6327 47.1738 33.5388 47.0124 33.4991C46.0084 33.2479 45.0475 32.8486 44.1612 32.3146C44.0222 32.2315 43.8595 32.197 43.6988 32.2168C43.538 32.2365 43.3885 32.3093 43.2738 32.4236L40.9535 34.778L38.2187 32.0457L40.5535 29.7131C40.6696 29.598 40.7435 29.4473 40.7633 29.2851C40.7831 29.1229 40.7476 28.9588 40.6626 28.8193C40.1354 27.9326 39.7432 26.9726 39.4988 25.9707C39.4548 25.8135 39.3592 25.6757 39.2272 25.5795C39.0953 25.4832 38.9347 25.4342 38.7715 25.4402H35.4547V21.5525H38.7715C38.9376 21.5573 39.1004 21.5052 39.2328 21.4047C39.3651 21.3042 39.459 21.1615 39.4988 21.0002C39.7384 20.007 40.1232 19.0546 40.6408 18.1735C40.724 18.0346 40.7584 17.8721 40.7387 17.7115C40.7189 17.5509 40.6461 17.4015 40.5317 17.2869L38.1969 14.9543L40.9535 12.2002L43.2738 14.5401C43.3893 14.6532 43.5393 14.7246 43.7 14.7431C43.8607 14.7615 44.023 14.7259 44.1612 14.6418C45.0478 14.1101 46.0088 13.7133 47.0124 13.4646C47.1738 13.4248 47.3167 13.331 47.4173 13.1988C47.5179 13.0666 47.5701 12.9039 47.5652 12.7379V9.45335H51.4348V12.7525C51.4299 12.9185 51.4821 13.0811 51.5827 13.2133C51.6833 13.3455 51.8262 13.4394 51.9876 13.4791C52.9912 13.7279 53.9522 14.1246 54.8388 14.6564C54.9785 14.7386 55.1417 14.7718 55.3025 14.7507C55.4633 14.7296 55.6124 14.6555 55.7262 14.5401L58.0683 12.2075L60.8031 14.9398L58.4683 17.2724C58.3505 17.3879 58.2755 17.5401 58.2556 17.7038C58.2358 17.8676 58.2723 18.0332 58.3592 18.1735C58.8915 19.0592 59.2886 20.0193 59.5375 21.022C59.5774 21.1833 59.6713 21.326 59.8036 21.4265C59.9359 21.527 60.0987 21.5791 60.2649 21.5743H63.5671V25.4402H60.2431C60.0835 25.4391 59.928 25.4904 59.8005 25.5863C59.673 25.6821 59.5806 25.8172 59.5375 25.9707V25.9925Z" fill="#0C2758"/>
<path d="M49.506 17C48.2199 16.9988 46.9624 17.3792 45.8925 18.0929C44.8227 18.8067 43.9886 19.8218 43.4959 21.0098C43.0032 22.1977 42.874 23.5052 43.1246 24.7666C43.3752 26.028 43.9944 27.1868 44.9038 28.0962C45.8132 29.0056 46.972 29.6248 48.2334 29.8754C49.4948 30.126 50.8023 29.9968 51.9902 29.5041C53.1782 29.0113 54.1933 28.1773 54.9071 27.1075C55.6208 26.0376 56.0012 24.7801 56 23.494C55.9984 21.7722 55.3137 20.1213 54.0962 18.9038C52.8787 17.6863 51.2278 17.0016 49.506 17V17ZM49.506 28.7925C48.4578 28.7937 47.4328 28.484 46.5607 27.9025C45.6885 27.321 45.0085 26.4939 44.6065 25.5258C44.2046 24.5577 44.0988 23.4922 44.3026 22.464C44.5063 21.4358 45.0105 20.4911 45.7513 19.7495C46.492 19.0079 47.4361 18.5027 48.4641 18.2977C49.4921 18.0928 50.5577 18.1974 51.5263 18.5982C52.4948 18.9991 53.3227 19.6782 53.9051 20.5497C54.4876 21.4211 54.7985 22.4458 54.7985 23.494C54.7969 24.8977 54.239 26.2436 53.247 27.2367C52.255 28.2299 50.9097 28.7893 49.506 28.7925V28.7925Z" fill="#0C2758"/>
<path d="M17.5316 27.9999H22.5139C22.6236 27.9999 22.7323 27.9797 22.8336 27.9405C22.935 27.9013 23.0271 27.8439 23.1047 27.7715C23.1822 27.6991 23.2438 27.6131 23.2858 27.5185C23.3278 27.4239 23.3494 27.3225 23.3494 27.2201V24.2004C24.0618 23.9997 24.7512 23.7337 25.4076 23.4065L27.6861 25.533C27.8487 25.6638 28.0562 25.7357 28.2709 25.7357C28.4855 25.7357 28.693 25.6638 28.8557 25.533L32.3873 22.244C32.5427 22.0979 32.6299 21.9004 32.6299 21.6946C32.6299 21.4888 32.5427 21.2913 32.3873 21.1452L30.1089 19.0187C30.4576 18.4052 30.7425 17.7619 30.9595 17.0977H34.1949C34.4105 17.0921 34.6153 17.0083 34.7656 16.864C34.916 16.7197 35.0001 16.5263 35 16.325V11.6678C35 11.4629 34.9128 11.2664 34.7575 11.1215C34.6023 10.9766 34.3917 10.8952 34.1722 10.8952H30.9367C30.7215 10.2212 30.4366 9.56833 30.0861 8.9458L32.3646 6.81923C32.5199 6.67317 32.6071 6.47569 32.6071 6.26987C32.6071 6.06405 32.5199 5.86657 32.3646 5.72051L28.8329 2.43141C28.6703 2.30068 28.4627 2.22878 28.2481 2.22878C28.0335 2.22878 27.8259 2.30068 27.6633 2.43141L25.3848 4.55798C24.7317 4.22955 24.0446 3.96356 23.3342 3.76406V0.772686C23.3342 0.670621 23.3125 0.569566 23.2704 0.475358C23.2284 0.38115 23.1667 0.295657 23.089 0.223816C23.0113 0.151975 22.9192 0.0952098 22.8179 0.0567998C22.7166 0.0183898 22.6081 -0.000903861 22.4987 3.25203e-05H17.5316C17.4223 -0.000903861 17.3138 0.0183898 17.2125 0.0567998C17.1112 0.0952098 17.019 0.151975 16.9414 0.223816C16.8637 0.295657 16.802 0.38115 16.7599 0.475358C16.7179 0.569566 16.6962 0.670621 16.6962 0.772686V3.79242C15.9838 3.99316 15.2944 4.25909 14.638 4.58634L12.3595 2.45977C12.1968 2.32904 11.9893 2.25714 11.7747 2.25714C11.56 2.25714 11.3525 2.32904 11.1899 2.45977L7.65823 5.74177C7.57834 5.81316 7.5149 5.89902 7.4718 5.9941C7.42871 6.08917 7.40686 6.19145 7.40759 6.29468C7.42585 6.49079 7.51411 6.67551 7.65823 6.81923L9.93671 8.9458C9.58796 9.55926 9.30311 10.2025 9.08608 10.8668H5.82785C5.60829 10.8668 5.39772 10.9482 5.24247 11.0931C5.08722 11.238 5 11.4345 5 11.6395V16.2966C5 16.5016 5.08722 16.6981 5.24247 16.843C5.39772 16.9879 5.60829 17.0693 5.82785 17.0693H9.06329C9.2858 17.7441 9.57833 18.3969 9.93671 19.0187L7.65823 21.1452C7.57926 21.2158 7.51636 21.3005 7.4733 21.3943C7.43023 21.4881 7.40789 21.589 7.40759 21.691C7.41693 21.8962 7.50292 22.0918 7.65063 22.244L11.1823 25.533C11.3449 25.6638 11.5524 25.7357 11.7671 25.7357C11.9817 25.7357 12.1893 25.6638 12.3519 25.533L14.6304 23.4065C15.2835 23.7349 15.9706 24.0009 16.681 24.2004V27.2201C16.681 27.3237 16.7031 27.4263 16.746 27.5218C16.789 27.6174 16.8519 27.704 16.9311 27.7766C17.0102 27.8492 17.1041 27.9063 17.2073 27.9446C17.3104 27.983 17.4207 28.0018 17.5316 27.9999V27.9999ZM14.9494 21.9391C14.7899 21.8537 14.605 21.8192 14.4226 21.841C14.2402 21.8627 14.0705 21.9395 13.9392 22.0597L11.7671 24.087L9.17722 21.7052L11.3494 19.6779C11.4786 19.5536 11.5593 19.3924 11.5786 19.2201C11.5979 19.0479 11.5546 18.8746 11.4557 18.728C10.9641 17.9625 10.5956 17.1338 10.362 16.2683C10.3178 16.1003 10.2144 15.9509 10.0684 15.8442C9.92248 15.7376 9.74236 15.6797 9.55696 15.6799H6.51899V12.3129H9.55696C9.74236 12.3131 9.92248 12.2552 10.0684 12.1486C10.2144 12.0419 10.3178 11.8926 10.362 11.7245C10.597 10.8572 10.9654 10.0263 11.4557 9.2577C11.5508 9.11035 11.5904 8.9376 11.5684 8.76683C11.5464 8.59606 11.464 8.43702 11.3342 8.31492L9.17722 6.29468L11.7291 3.90583L13.9013 5.94025C14.0341 6.05823 14.2041 6.13301 14.3862 6.15345C14.5682 6.17388 14.7524 6.13889 14.9114 6.05367C15.7253 5.59323 16.6085 5.24916 17.5316 5.03291C17.711 4.99052 17.8703 4.89373 17.9844 4.75774C18.0985 4.62175 18.161 4.45425 18.162 4.28153V1.4461H21.7772V4.28153C21.7778 4.45331 21.8392 4.62009 21.9519 4.75596C22.0645 4.89183 22.222 4.98919 22.4 5.03291C23.3312 5.24653 24.2224 5.59069 25.043 6.05367C25.2025 6.13913 25.3874 6.1736 25.5698 6.15185C25.7522 6.13009 25.9219 6.0533 26.0532 5.93316L28.2253 3.90583L30.7772 6.29468L28.6051 8.32201C28.4753 8.44411 28.3928 8.60315 28.3708 8.77392C28.3488 8.94469 28.3885 9.11744 28.4835 9.26479C28.9751 10.0303 29.3436 10.8591 29.5772 11.7245C29.6214 11.8926 29.7248 12.0419 29.8708 12.1486C30.0168 12.2552 30.1969 12.3131 30.3823 12.3129H33.4203V15.6799H30.443C30.2576 15.6797 30.0775 15.7376 29.9316 15.8442C29.7856 15.9509 29.6822 16.1003 29.638 16.2683C29.403 17.1356 29.0346 17.9665 28.5443 18.7351C28.4492 18.8825 28.4096 19.0552 28.4316 19.226C28.4536 19.3968 28.536 19.5558 28.6658 19.6779L30.8076 21.7052L28.2557 24.0941L26.0835 22.0597C25.9508 21.9417 25.7807 21.8669 25.5987 21.8465C25.4166 21.826 25.2324 21.861 25.0734 21.9462C24.2548 22.408 23.3664 22.7521 22.438 22.967C22.2586 23.0094 22.0993 23.1062 21.9852 23.2422C21.8711 23.3782 21.8087 23.5457 21.8076 23.7184V26.5892H18.1924V23.7113C18.1918 23.5395 18.1304 23.3727 18.0178 23.2369C17.9051 23.101 17.7476 23.0036 17.5696 22.9599C16.6384 22.7463 15.7473 22.4021 14.9266 21.9391H14.9494Z" fill="#0C2758"/>
<path d="M26 14C26 12.8133 25.6481 11.6533 24.9888 10.6666C24.3295 9.67989 23.3925 8.91085 22.2961 8.45673C21.1997 8.0026 19.9933 7.88378 18.8295 8.11529C17.6656 8.3468 16.5965 8.91825 15.7574 9.75736C14.9182 10.5965 14.3468 11.6656 14.1153 12.8295C13.8838 13.9933 14.0026 15.1997 14.4567 16.2961C14.9109 17.3925 15.6799 18.3295 16.6666 18.9888C17.6533 19.6481 18.8133 20 20 20C21.5907 19.9982 23.1158 19.3654 24.2406 18.2406C25.3654 17.1158 25.9982 15.5907 26 14ZM15.3921 14C15.3921 13.0886 15.6624 12.1978 16.1687 11.44C16.675 10.6822 17.3947 10.0916 18.2366 9.74287C19.0786 9.39411 20.0051 9.30286 20.899 9.48065C21.7928 9.65845 22.6138 10.0973 23.2583 10.7417C23.9027 11.3862 24.3416 12.2072 24.5193 13.101C24.6971 13.9949 24.6059 14.9214 24.2571 15.7634C23.9084 16.6053 23.3178 17.325 22.56 17.8313C21.8022 18.3376 20.9114 18.6079 20 18.6079C18.7785 18.606 17.6075 18.12 16.7438 17.2562C15.88 16.3925 15.394 15.2215 15.3921 14V14Z" fill="#0C2758"/>
<path d="M10.3289 40.8898C9.67047 40.8898 9.02682 41.0845 8.47935 41.4494C7.93189 41.8143 7.50519 42.333 7.25322 42.9398C7.00124 43.5466 6.93532 44.2143 7.06377 44.8585C7.19223 45.5027 7.50929 46.0944 7.97487 46.5589C8.44046 47.0233 9.03364 47.3396 9.67943 47.4677C10.3252 47.5959 10.9946 47.5301 11.6029 47.2787C12.2112 47.0274 12.7311 46.6017 13.0969 46.0556C13.4628 45.5095 13.658 44.8675 13.658 44.2106C13.658 43.3299 13.3073 42.4852 12.6829 41.8624C12.0586 41.2396 11.2118 40.8898 10.3289 40.8898V40.8898ZM10.3289 45.9155C9.99088 45.9155 9.66044 45.8155 9.37938 45.6282C9.09832 45.4409 8.87926 45.1746 8.7499 44.8631C8.62054 44.5515 8.5867 44.2088 8.65264 43.878C8.71859 43.5473 8.88136 43.2435 9.12039 43.0051C9.35941 42.7667 9.66394 42.6043 9.99547 42.5385C10.327 42.4727 10.6706 42.5065 10.9829 42.6355C11.2952 42.7646 11.5622 42.9831 11.75 43.2635C11.9378 43.5438 12.038 43.8735 12.038 44.2106C12.038 44.6628 11.8579 45.0965 11.5374 45.4162C11.2169 45.7359 10.7822 45.9155 10.3289 45.9155Z" fill="#0C2758"/>
</svg>
