<svg width="60" height="60" viewBox="0 0 60 60" fill="none" xmlns="http://www.w3.org/2000/svg">
<path d="M40.875 4.6H34.65V0.439999H12.8625V4.6H6.6375C5.26169 4.6 3.94223 5.14785 2.96938 6.12304C1.99654 7.09823 1.45 8.42087 1.45 9.8V54.52C1.45 55.8991 1.99654 57.2218 2.96938 58.197C3.94223 59.1722 5.26169 59.72 6.6375 59.72H40.875C42.2508 59.72 43.5703 59.1722 44.5431 58.197C45.516 57.2218 46.0625 55.8991 46.0625 54.52V9.8C46.0625 8.42087 45.516 7.09823 44.5431 6.12304C43.5703 5.14785 42.2508 4.6 40.875 4.6ZM14.9375 2.52H32.575V8.76H14.9375V2.52ZM43.9875 54.52C43.9875 55.3475 43.6596 56.1411 43.0759 56.7262C42.4922 57.3113 41.7005 57.64 40.875 57.64H6.6375C5.81201 57.64 5.02034 57.3113 4.43663 56.7262C3.85292 56.1411 3.525 55.3475 3.525 54.52V9.8C3.525 8.97252 3.85292 8.17894 4.43663 7.59383C5.02034 7.00871 5.81201 6.68 6.6375 6.68H12.8625V10.84H34.65V6.68H40.875C41.7005 6.68 42.4922 7.00871 43.0759 7.59383C43.6596 8.17894 43.9875 8.97252 43.9875 9.8V54.52Z" fill="#0C2758"/>
<path d="M54.4375 4.6C53.0617 4.6 51.7422 5.14785 50.7694 6.12304C49.7965 7.09823 49.25 8.42087 49.25 9.8V47.4584L54.4375 59.1584L59.625 47.4584V9.8C59.625 8.42087 59.0785 7.09823 58.1056 6.12304C57.1328 5.14785 55.8133 4.6 54.4375 4.6ZM54.4375 54.0416L51.4184 47.24H57.4566L54.4375 54.0416ZM57.55 45.16H51.325V13.96H57.55V45.16ZM57.55 11.88H51.325V9.8C51.325 8.97252 51.6529 8.17894 52.2366 7.59383C52.8203 7.00871 53.612 6.68 54.4375 6.68C55.263 6.68 56.0547 7.00871 56.6384 7.59383C57.2221 8.17894 57.55 8.97252 57.55 9.8V11.88Z" fill="#0C2758"/>
<path d="M7.675 24.36H17.0125V15H7.675V24.36ZM9.75 17.08H14.9375V22.28H9.75V17.08Z" fill="#0C2758"/>
<path d="M7.675 37.88H17.0125V28.52H7.675V37.88ZM9.75 30.6H14.9375V35.8H9.75V30.6Z" fill="#0C2758"/>
<path d="M7.675 52.44H17.0125V43.08H7.675V52.44ZM9.75 45.16H14.9375V50.36H9.75V45.16Z" fill="#0C2758"/>
<path d="M38.8 16.04H22.2C21.9248 16.04 21.6609 16.1496 21.4664 16.3446C21.2718 16.5396 21.1625 16.8042 21.1625 17.08C21.1625 17.3558 21.2718 17.6204 21.4664 17.8154C21.6609 18.0104 21.9248 18.12 22.2 18.12H38.8C39.0752 18.12 39.3391 18.0104 39.5336 17.8154C39.7282 17.6204 39.8375 17.3558 39.8375 17.08C39.8375 16.8042 39.7282 16.5396 39.5336 16.3446C39.3391 16.1496 39.0752 16.04 38.8 16.04Z" fill="#0C2758"/>
<path d="M38.8 21.24H22.2C21.9248 21.24 21.6609 21.3496 21.4664 21.5446C21.2718 21.7396 21.1625 22.0042 21.1625 22.28C21.1625 22.5558 21.2718 22.8204 21.4664 23.0154C21.6609 23.2104 21.9248 23.32 22.2 23.32H38.8C39.0752 23.32 39.3391 23.2104 39.5336 23.0154C39.7282 22.8204 39.8375 22.5558 39.8375 22.28C39.8375 22.0042 39.7282 21.7396 39.5336 21.5446C39.3391 21.3496 39.0752 21.24 38.8 21.24Z" fill="#0C2758"/>
<path d="M38.8 29.56H22.2C21.9248 29.56 21.6609 29.6696 21.4664 29.8646C21.2718 30.0596 21.1625 30.3242 21.1625 30.6C21.1625 30.8758 21.2718 31.1404 21.4664 31.3354C21.6609 31.5304 21.9248 31.64 22.2 31.64H38.8C39.0752 31.64 39.3391 31.5304 39.5336 31.3354C39.7282 31.1404 39.8375 30.8758 39.8375 30.6C39.8375 30.3242 39.7282 30.0596 39.5336 29.8646C39.3391 29.6696 39.0752 29.56 38.8 29.56Z" fill="#0C2758"/>
<path d="M38.8 34.76H22.2C21.9248 34.76 21.6609 34.8696 21.4664 35.0646C21.2718 35.2596 21.1625 35.5242 21.1625 35.8C21.1625 36.0758 21.2718 36.3404 21.4664 36.5354C21.6609 36.7304 21.9248 36.84 22.2 36.84H38.8C39.0752 36.84 39.3391 36.7304 39.5336 36.5354C39.7282 36.3404 39.8375 36.0758 39.8375 35.8C39.8375 35.5242 39.7282 35.2596 39.5336 35.0646C39.3391 34.8696 39.0752 34.76 38.8 34.76Z" fill="#0C2758"/>
<path d="M38.8 44.12H22.2C21.9248 44.12 21.6609 44.2296 21.4664 44.4246C21.2718 44.6196 21.1625 44.8842 21.1625 45.16C21.1625 45.4358 21.2718 45.7004 21.4664 45.8954C21.6609 46.0904 21.9248 46.2 22.2 46.2H38.8C39.0752 46.2 39.3391 46.0904 39.5336 45.8954C39.7282 45.7004 39.8375 45.4358 39.8375 45.16C39.8375 44.8842 39.7282 44.6196 39.5336 44.4246C39.3391 44.2296 39.0752 44.12 38.8 44.12Z" fill="#0C2758"/>
<path d="M38.8 49.32H22.2C21.9248 49.32 21.6609 49.4296 21.4664 49.6246C21.2718 49.8196 21.1625 50.0842 21.1625 50.36C21.1625 50.6358 21.2718 50.9004 21.4664 51.0954C21.6609 51.2904 21.9248 51.4 22.2 51.4H38.8C39.0752 51.4 39.3391 51.2904 39.5336 51.0954C39.7282 50.9004 39.8375 50.6358 39.8375 50.36C39.8375 50.0842 39.7282 49.8196 39.5336 49.6246C39.3391 49.4296 39.0752 49.32 38.8 49.32Z" fill="#0C2758"/>
</svg>
