<?xml version="1.0" encoding="utf-8"?>
<!-- Generator: Adobe Illustrator 23.0.0, SVG Export Plug-In . SVG Version: 6.00 Build 0)  -->
<svg version="1.1" id="Layer_1" xmlns="http://www.w3.org/2000/svg" xmlns:xlink="http://www.w3.org/1999/xlink" x="0px" y="0px"
	 viewBox="0 0 160 34" style="enable-background:new 0 0 160 34;" xml:space="preserve">
<style type="text/css">
	.st0{clip-path:url(#SVGID_2_);}
	.st1{fill:#C4C4C4;}
	.st2{fill-rule:evenodd;clip-rule:evenodd;fill:#C4C4C4;}
	.st3{fill:#FEFEFE;}
	.st4{fill:#FFFFFF;}
</style>
<g>
	<g>
		<path class="st1" d="M143.5,6.6c0.7,0,1.1,0.2,1.5,0.4c0.5,0.2,0.7,0.7,0.7,1.2c0,3.7-0.1,7.4-0.2,8.5c-0.1,0.8-0.3,1.1-0.8,1.2
			c-0.3,0.1-0.7,0.2-1.1,0.2c-0.1,0.1-0.1,0.6,0,0.6c0.6,0,1.4-0.1,2.6-0.1c1.1,0,2,0.1,2.6,0.1c0.1-0.1,0.1-0.6,0-0.6
			c-0.5-0.1-0.9-0.1-1.2-0.2c-0.6-0.1-0.9-0.4-0.9-1.3c0-1-0.1-5.6,0-7.8c0,0,0-0.1,0.1,0c1.3,1.6,6.5,8.3,7.7,9.9
			c0.3,0,1.4,0,1.7,0c0-0.7,0-1.9,0-2.9c0-3.3,0-6.2,0.2-8c0-0.7,0.2-1,0.8-1.2c0.3-0.1,0.5-0.1,0.8-0.2c0.1-0.1,0.1-0.6,0-0.6
			c-0.3,0-1.4,0.1-2.3,0.1c-1.3,0-2.2-0.1-2.8-0.1c-0.1,0-0.1,0.6,0,0.6c0.5,0,0.9,0.1,1.3,0.2c0.6,0.2,0.8,0.5,0.9,1.1
			c0.1,1.4,0.1,4.8,0.1,7.5c0,0,0,0-0.1,0c-1.1-1.4-4.9-6-6.7-8.4c-0.5-0.6-0.7-0.9-0.8-1.1c-0.2,0-0.7,0-1.2,0
			c-1.1,0-2.2-0.1-2.8-0.1C143.4,6.1,143.4,6.6,143.5,6.6z"/>
		<path class="st1" d="M132,6.6c0.5,0.1,0.8,0.1,1.1,0.2c0.5,0.2,0.6,0.3,0.6,1c0,0.6,0,2.3,0,4c0,2.4,0,4.3,0,5
			c0,0.7-0.2,0.9-0.6,1.1c-0.3,0.1-0.9,0.2-1.6,0.2c-0.1,0.1,0,0.5,0,0.6c1,0,2.3-0.1,3.5-0.1c2.2,0,3.9,0.1,5.7,0.1
			c1,0,1.1-0.1,1.2-0.3c0.3-0.6,0.8-2.4,0.9-2.9c-0.1-0.1-0.6-0.3-0.7-0.3c-0.3,0.7-0.7,1.4-1.1,1.9c-0.4,0.5-0.7,0.6-1.6,0.6
			c-1,0-2.4,0-2.9-0.2c-0.2-0.1-0.5-0.4-0.5-0.7c0-1,0-2.8,0-3.9c0,0,0.1-0.2,0.1-0.2c0.7,0,2.4,0,2.9,0c0.5,0.1,0.6,0.3,0.7,0.6
			c0.1,0.3,0.1,0.3,0.2,0.9c0.1,0.1,0.6,0,0.8,0c0-0.5,0-1.3,0-2c0-0.7,0.1-1.5,0.1-2c-0.1-0.1-0.6-0.1-0.8,0
			c-0.1,0.3-0.1,0.6-0.2,0.8c-0.1,0.4-0.3,0.6-0.8,0.7c-0.7,0.1-2.2,0.1-2.9,0c-0.1,0-0.1-0.1-0.1-0.2c0-1.1,0-3,0-4.2
			c0-0.1,0.1-0.3,0.3-0.4c0.3,0,2.6,0,3,0c0.5,0,0.8,0.2,0.9,0.7c0.2,0.3,0.2,0.7,0.3,1.4c0.1,0.1,0.6,0,0.7,0c0-1,0.2-2.4,0.3-3
			c0,0,0-0.1-0.1-0.1c-0.6,0.1-1.7,0.1-2.5,0.1h-4.1c-1.1,0-2.3-0.1-2.9-0.1C131.9,6.1,131.8,6.5,132,6.6z"/>
		<path class="st1" d="M121.1,16.7c0-0.5,0-2.5,0-4.5c0-1.8,0-4.5,0-5.1c0-0.1,0.1-0.3,0.2-0.3c0.2-0.1,0.5-0.1,0.9-0.1
			c1.2,0,2.4,0.2,3.2,0.8c1.5,1,2.2,2.9,2.2,4.9c0,2.2-0.6,3.5-1.4,4.5c-0.9,0.9-1.8,1.1-2.7,1.1c-0.7,0-1.6-0.1-2.1-0.5
			C121.2,17.3,121.1,17,121.1,16.7z M116.9,6.6c0.4,0,0.8,0.1,1.1,0.2c0.5,0.1,0.6,0.3,0.7,1c0.1,0.9,0.1,2.6,0.1,4.3
			c0,2.1,0,3.9-0.1,4.8c-0.1,0.7-0.3,0.9-0.7,1c-0.3,0.1-0.7,0.2-1.3,0.2c-0.1,0-0.1,0.5,0,0.6h0.9c1.9,0,3.5,0.1,4.8,0.1
			c2.2,0,3.9-0.4,5.4-1.6c1.3-1,2.4-2.6,2.4-5.2c0-1.9-0.7-3.6-2-4.7C127,6.4,125.5,6,123.7,6c-1.8,0-2.6,0.1-4,0.1
			c-0.6,0-2.4-0.1-2.8-0.1C116.8,6.1,116.8,6.5,116.9,6.6z"/>
		<path class="st1" d="M108.6,6.8c1.9,0,2.9,1.2,2.9,3c0,1.3-0.5,2-1.2,2.3c-0.4,0.2-1.3,0.2-2.5,0.2c-0.1,0-0.1,0-0.1-0.1
			c0-2.1,0-4.4,0-5c0-0.1,0.1-0.3,0.1-0.3C108.1,6.8,108.4,6.8,108.6,6.8z M103.7,6.6c0.4,0,0.8,0.1,1.1,0.2c0.5,0.1,0.6,0.4,0.6,1
			c0,0.8,0,2.5,0,4.5c0,1.2,0,4,0,4.6c0,0.7-0.2,1-0.7,1.1c-0.3,0.1-0.6,0.1-1,0.2c-0.1,0.1-0.1,0.6,0,0.6c0.4,0,1.3-0.1,2.8-0.1
			c1.5,0,2.5,0.1,2.9,0.1c0.1-0.1,0.1-0.6,0-0.6c-0.5-0.1-0.8-0.1-1.1-0.2c-0.5-0.1-0.6-0.3-0.6-1c0-0.8,0-2.4,0-3.6
			c0,0,0-0.1,0.1-0.1c0.2,0,0.8,0,1,0c0.2,0,0.4,0.1,0.6,0.3c0.7,1.1,1.9,3,2.7,4c0.2,0.3,0.6,0.7,1,0.9c0.8,0.4,2.7,0.4,3.7,0.4
			c0.1,0,0.2-0.6,0.1-0.6c-1.2-0.2-1.4-0.2-2.2-1c-1-1-2.8-3.5-3.3-4.5c0,0,0-0.1,0-0.1c1.3-0.6,2.4-1.6,2.4-3.3
			c0-1.8-1.3-3.2-3.8-3.2c-1,0-2.1,0.1-3.6,0.1c-0.7,0-2.1-0.1-2.6-0.1C103.7,6,103.7,6.5,103.7,6.6z"/>
		<path class="st1" d="M96,8.6c0.4,1,1.1,3.2,1.4,4.2c0,0.1,0,0.2-0.1,0.2c-0.2,0-0.8,0-1.4,0c-0.7,0-1.2,0-1.4,0
			c-0.1,0-0.1,0-0.1-0.2c0.4-1,1-3.1,1.4-4.2C95.9,8.6,96,8.6,96,8.6z M89.7,18.1c-0.1,0.1-0.1,0.6,0,0.6c0.5,0,1.3-0.1,2.3-0.1
			c1.2,0,2.1,0.1,2.6,0.1c0.1-0.1,0.1-0.6,0.1-0.6c-0.4,0-0.7-0.1-1-0.2C93,17.8,93,17.5,93,17.2c0-0.4,0.6-1.9,0.9-3
			c0-0.1,0.1-0.2,0.2-0.2c0.3,0,0.6,0,1.7,0c0.8,0,1.5,0,1.8,0c0.1,0,0.2,0.1,0.2,0.1c0.3,0.8,0.9,2.5,1.1,3.2
			c0.1,0.2,0.1,0.4-0.2,0.5c-0.2,0.1-0.6,0.2-1.1,0.2c-0.1,0.1-0.1,0.5,0,0.6c0.6,0,1.6-0.1,2.9-0.1c1.2,0,2.2,0.1,2.8,0.1
			c0.1-0.1,0.1-0.6,0.1-0.6c-1.5-0.2-1.6-0.3-2.3-1.9c-0.7-1.8-2.7-7.5-3.3-9.1c-0.1-0.4-0.2-0.8-0.3-1.1c-0.2,0-0.5,0-0.9,0
			c-0.4,0-0.7,0-0.9,0c0,0.3-0.2,0.9-0.4,1.3c-0.5,1.4-2.3,6.4-3.4,9C91.4,17.8,91.1,17.9,89.7,18.1z"/>
		<path class="st1" d="M88.3,17.8c-0.4-0.2-0.5-0.3-0.5-0.5c0-0.3,0-1.6,0-2.2c0-0.8,0.1-1,0.5-1.1c0.2-0.1,0.4-0.1,0.6-0.2
			c0.1-0.1,0.1-0.6,0-0.7c-0.4,0-1.1,0.1-2.4,0.1c-1.4,0-2.6-0.1-3.2-0.1c-0.1,0.1-0.1,0.6,0,0.7c0.6,0.1,1,0.1,1.4,0.2
			c0.6,0.2,0.7,0.5,0.8,1.1c0,0.6,0,1.5,0,2.1c0,0.3-0.2,0.6-0.4,0.8c-0.2,0.2-0.7,0.2-1.1,0.2c-3.3,0-5.1-2.7-5.1-6.2
			c0-3.8,1.7-5.5,4.4-5.5c1.2,0,2.1,0.2,2.8,0.7c0.6,0.4,0.8,1,1,2.5c0.1,0.1,0.7,0,0.7-0.1c0-1,0.2-2.7,0.3-3.5
			C87,6,85.7,5.7,83.9,5.7c-1.7,0-3,0.2-4.1,0.8c-2.3,1-3.7,3.1-3.7,5.8c0,4.5,2.7,6.8,7.4,6.8c1.9,0,3.9-0.6,4.7-0.8
			C88.3,18.2,88.3,17.9,88.3,17.8z"/>
		<path class="st1" d="M58.4,6.6c0.5,0.1,0.8,0.1,1.1,0.2c0.5,0.2,0.6,0.3,0.6,1c0,0.6,0,2.3,0,4c0,2.4,0,4.3,0,5
			c0,0.7-0.2,0.9-0.6,1.1c-0.3,0.1-0.9,0.2-1.6,0.2c-0.1,0.1,0,0.5,0,0.6c1,0,2.3-0.1,3.5-0.1c2.2,0,3.9,0.1,5.7,0.1
			c1,0,1.1-0.1,1.2-0.3c0.3-0.6,0.8-2.4,0.9-2.9c-0.1-0.1-0.6-0.3-0.7-0.3c-0.3,0.7-0.7,1.4-1.1,1.9c-0.4,0.5-0.7,0.6-1.6,0.6
			c-1,0-2.4,0-2.9-0.2c-0.2-0.1-0.5-0.4-0.5-0.7c0-1,0-2.8,0-3.9c0,0,0.1-0.2,0.1-0.2c0.7,0,2.4,0,2.9,0c0.5,0.1,0.6,0.3,0.7,0.6
			c0.1,0.3,0.1,0.3,0.2,0.9c0.1,0.1,0.6,0,0.8,0c0-0.5,0-1.3,0-2c0-0.7,0.1-1.5,0.1-2c-0.1-0.1-0.6-0.1-0.8,0
			c-0.1,0.3-0.1,0.6-0.2,0.8c-0.1,0.4-0.3,0.6-0.8,0.7c-0.7,0.1-2.2,0.1-2.9,0c-0.1,0-0.1-0.1-0.1-0.2c0-1.1,0-3,0-4.2
			c0-0.1,0.1-0.3,0.3-0.4c0.3,0,2.6,0,3,0c0.5,0,0.8,0.2,0.9,0.7C66.8,8,66.9,8.4,67,9.1c0.1,0.1,0.6,0,0.7,0c0-1,0.2-2.4,0.3-3
			C68,6,68,6,67.9,6c-0.6,0.1-1.7,0.1-2.5,0.1h-4.1C60.2,6.1,59,6,58.4,6C58.3,6.1,58.2,6.5,58.4,6.6z"/>
		<path class="st1" d="M54.1,18.1C53.4,18,53,18,52.7,17.9c-0.5-0.1-0.6-0.5-0.6-1.1c0-1.2,0-6.7,0-9.7c0-0.1,0-0.1,0.1-0.2
			c0.4,0,1.8,0,2.6,0c0.4,0,0.6,0.2,0.8,0.6c0.2,0.5,0.3,1.1,0.3,1.9c0.1,0.1,0.7,0.1,0.7,0c0.1-1.2,0.3-2.8,0.5-3.6
			c0,0-0.1-0.2-0.2-0.2C56.3,6,55.8,6,54.7,6h-7.5c-0.6,0-1.3-0.1-1.8-0.3c-0.1,0-0.2,0-0.2,0.1c-0.1,0.9-0.3,2.6-0.4,3.5
			c0,0.1,0.6,0.2,0.7,0.2c0.2-0.8,0.5-1.4,0.8-1.9C46.5,7.2,46.8,7,47.2,7c0.6,0,2,0,2.4,0c0,0,0.1,0.1,0.1,0.2c0,3.4,0,7.5,0,9.4
			c0,0.9-0.2,1.3-0.8,1.4c-0.3,0.1-0.8,0.2-1.4,0.2c-0.1,0.1-0.1,0.5,0,0.6c0.6,0,1.7-0.1,3.4-0.1c1.3,0,2.5,0.1,3.2,0.1
			C54.1,18.7,54.2,18.2,54.1,18.1z"/>
		<path class="st1" d="M37.8,6.6c0.6,0,0.8,0.1,1.2,0.2c0.4,0.1,0.5,0.4,0.5,0.9c0.1,1,0.1,2.2,0.1,4.1c0,2.2,0,4.5,0,5.2
			c-0.1,0.6-0.2,0.9-0.7,1c-0.2,0.1-0.6,0.1-1,0.2c-0.1,0.1-0.1,0.6,0,0.6c0.7,0,1.6-0.1,3.1-0.1c1.2,0,2.2,0,2.9,0.1
			c0.1-0.1,0.1-0.6,0.1-0.6c-0.5-0.1-0.9-0.2-1.2-0.2c-0.6-0.1-0.7-0.5-0.7-1.1c0-0.8,0-2.5,0-4.8c0-1.8,0-3.4,0-4.2
			c0-0.6,0.1-0.9,0.6-1.1c0.3-0.1,0.6-0.1,1.1-0.2c0.1-0.1,0.1-0.6,0-0.6C43.1,6,42.3,6,40.8,6C39.5,6,38.5,6,37.9,6
			C37.8,6.1,37.8,6.5,37.8,6.6z"/>
		<path class="st1" d="M22.2,6.6c0.5,0,0.8,0.1,1.2,0.2c0.4,0.1,0.5,0.3,0.6,1c0,0.5,0,2.5,0,4.5c0,1.8,0,3.7,0,4.2
			c-0.1,0.9-0.2,1.3-0.7,1.4c-0.3,0.1-0.6,0.1-1.1,0.2c-0.1,0.1-0.1,0.6,0,0.6c0.4,0,1.5-0.1,2.9-0.1c1.6,0,2.6,0.1,3,0.1
			c0.1-0.1,0.2-0.6,0.1-0.6c-0.5-0.1-0.9-0.2-1.2-0.2c-0.5-0.2-0.6-0.5-0.6-1.1c0-0.6,0-2.6,0-3.8c0,0,0-0.1,0-0.1
			c0.2,0,1.2,0,3.2,0c1.1,0,2.5,0,2.9,0c0.1,0,0.1,0.1,0.1,0.2c0,1.3,0,3.2,0,4c0,0.6-0.2,0.9-0.5,1c-0.3,0.1-0.6,0.2-1.1,0.2
			c-0.1,0.1-0.1,0.6,0,0.6c0.5,0,1.7-0.1,2.9-0.1c1.3,0,2.3,0.1,2.9,0.1c0.1-0.1,0.1-0.6,0.1-0.6c-0.7-0.1-1-0.2-1.3-0.2
			c-0.4-0.2-0.5-0.4-0.5-1c0-0.8,0-2.8,0-4.4c0-2.5,0-3.6,0-4.6c0-0.7,0.1-0.9,0.6-1c0.3-0.1,0.6-0.2,1-0.2c0.1-0.1,0.1-0.6,0-0.6
			C36,6,35,6.1,33.7,6.1c-1.3,0-2.2-0.1-2.8-0.1c-0.1,0.1-0.1,0.6,0,0.7c0.5,0,0.9,0.1,1.2,0.2c0.3,0.1,0.4,0.4,0.4,0.7
			c0,0.9,0,2.9,0,4c0,0-0.1,0.2-0.1,0.2c-0.2,0-1,0-2.8,0c-2.6,0-3,0-3.1,0c-0.1,0-0.1-0.1-0.1-0.2c0-1.6,0-2.8,0-3.7
			c0-0.6,0.1-0.9,0.5-1c0.2-0.1,0.6-0.2,1-0.2c0.1-0.1,0.1-0.6,0-0.6c-0.6,0-1.3,0.1-2.8,0.1c-1.4,0-2.3-0.1-2.8-0.1
			C22.1,6.1,22.1,6.6,22.2,6.6z"/>
		<path class="st1" d="M2.7,6.6c0.5,0,0.7,0.1,1.1,0.2c0.5,0.2,0.8,0.6,1,1.3c0.7,2,2.5,8.1,3.1,10.7c0.3-0.1,1,0,1.3,0
			c0.6-2,2.2-6.3,3.1-8.7c0,0,0.1,0,0.1,0c0.7,1.7,2.6,7.1,3.1,8.8c0.3,0,1,0,1.3,0c0.8-2.6,2.6-8.2,3.5-10.7
			c0.3-0.8,0.6-1.1,1.1-1.3c0.2-0.1,0.5-0.2,0.9-0.2c0.1-0.1,0.1-0.6,0-0.6C21.8,6,21.2,6,19.8,6c-1,0-2-0.1-2.5-0.1
			c-0.1,0-0.1,0.6,0,0.6c0.6,0.1,1,0.1,1.3,0.2c0.6,0.2,0.6,0.6,0.5,1.3c-0.3,1.4-1.5,5.4-2.1,7.2c0,0-0.1,0-0.1,0
			c-0.6-1.5-2.6-7-3.2-8.8c-0.3,0-1,0-1.3,0c-0.5,1.9-2,6.3-2.9,8.5c0,0-0.1,0.1-0.1,0c-0.6-2-1.7-5.6-2.2-7.6
			C7.2,7.2,7.2,7,7.5,6.9c0.2-0.1,0.5-0.2,1-0.2C8.6,6.5,8.6,6,8.5,6C7.9,6,7.3,6,5.7,6C4.4,6,3.6,6,2.8,6C2.7,6,2.7,6.6,2.7,6.6z"
			/>
		<path class="st1" d="M98.9,26.2h-1.3l0.4-1.6l-0.1-0.1l-0.7,0.7l-0.3,1h-0.6L96,26.6l0,0.1h0.8l-0.6,2.9c-0.2,1.1,0,1.4,0.2,1.4
			c0.6,0,1.4-0.7,1.7-1.1l-0.2-0.3c-0.3,0.3-0.8,0.7-1,0.7c-0.1,0-0.2-0.1-0.1-0.6l0.6-3l1.1-0.1L98.9,26.2z M94.9,29.7
			c-0.3,0.3-0.6,0.5-0.7,0.5c-0.1,0-0.1-0.1,0-0.4c0.2-0.8,0.4-1.6,0.6-2.3c0.1-0.4,0.1-0.7,0.1-0.9c0-0.5-0.2-0.6-0.4-0.6
			c-0.2,0-0.4,0.1-0.7,0.2c-0.4,0.2-1.3,0.8-2,1.9h0l0.2-0.9c0.1-0.4,0.1-0.7,0.1-0.9c0-0.2-0.1-0.3-0.2-0.3c-0.3,0-0.9,0.4-1.5,1
			l0.2,0.3c0.3-0.3,0.6-0.5,0.7-0.5c0.1,0,0.1,0.1,0,0.4c-0.3,1.2-0.6,2.5-0.9,3.7l0.1,0.1c0.2-0.1,0.5-0.2,0.7-0.2
			c0.1-0.6,0.3-1.3,0.4-1.8c0.6-1,1.9-2.3,2.4-2.3c0.1,0,0.2,0.1,0.2,0.2c0,0.1,0,0.3-0.1,0.5c-0.2,0.8-0.4,1.6-0.6,2.4
			c-0.1,0.3-0.1,0.5-0.1,0.7c0,0.3,0.1,0.4,0.3,0.4c0.3,0,0.9-0.3,1.5-1L94.9,29.7z M86.1,30.3c-0.2,0-0.3-0.2-0.3-0.7
			c0-1.1,0.4-2.3,1.2-2.9c0.2-0.1,0.5-0.2,0.8-0.2c0.3,0,0.6,0.1,0.7,0.2c-0.1,0.4-0.2,1.1-0.3,1.5C87.9,28.9,86.6,30.3,86.1,30.3z
			 M89.4,29.6c-0.3,0.3-0.7,0.6-0.8,0.6c-0.1,0-0.1-0.1,0-0.5c0.2-1.3,0.6-2.8,0.7-3.5l0,0c-0.1,0-0.3,0-0.4-0.1
			c-0.2,0-0.5-0.1-0.7-0.1c-0.6,0-1.4,0.3-1.9,0.8c-0.8,0.7-1.3,1.9-1.3,3c0,0.9,0.3,1.2,0.6,1.2c0.3,0,0.6-0.2,1-0.5
			c0.5-0.4,1-0.9,1.4-1.5h0l-0.2,1c-0.2,0.8,0,0.9,0.2,0.9c0.3,0,1-0.4,1.5-1.1L89.4,29.6z M82.9,27.8l0.1-0.5
			c0.1-0.3,0.1-0.6,0.1-0.8c0-0.3-0.1-0.5-0.2-0.5c-0.3,0-0.9,0.4-1.5,1l0.2,0.3c0.4-0.3,0.7-0.6,0.8-0.6c0.1,0,0.1,0.1,0,0.5
			c-0.2,1.2-0.5,2.5-0.8,3.6l0.1,0.1c0.2-0.1,0.5-0.2,0.7-0.2c0.2-0.8,0.3-1.4,0.4-2.1c0.2-0.5,0.6-1,0.8-1.3
			c0.3-0.3,0.4-0.5,0.6-0.5c0.1,0,0.2,0.1,0.4,0.2c0.1,0.1,0.1,0.1,0.2,0c0.1-0.1,0.2-0.2,0.3-0.3c0-0.1,0.1-0.2,0.1-0.2
			c0-0.1,0-0.1,0-0.2c-0.1-0.2-0.3-0.3-0.5-0.3C84.1,26,83.4,26.8,82.9,27.8L82.9,27.8L82.9,27.8z M80.5,29.7
			c-0.3,0.3-0.7,0.6-0.8,0.6c-0.1,0-0.1-0.1,0-0.4c0.3-1.4,0.6-2.6,0.9-3.8h-0.1l-0.7,0.3c-0.2,0.7-0.3,1.2-0.4,1.7
			c-0.5,0.8-1.7,2.3-2.3,2.3c-0.1,0-0.2-0.1-0.2-0.3c0-0.1,0-0.2,0-0.4c0.2-0.9,0.4-1.7,0.6-2.6c0.1-0.3,0.1-0.5,0.1-0.6
			c0-0.2-0.1-0.3-0.2-0.3c-0.3,0-0.9,0.4-1.6,1l0.1,0.3c0.4-0.4,0.7-0.5,0.8-0.5c0.1,0,0.1,0.1,0,0.3c-0.2,0.8-0.4,1.7-0.6,2.6
			c-0.1,0.3-0.1,0.5-0.1,0.7c0,0.5,0.2,0.6,0.5,0.6c0.3,0,0.6-0.1,0.9-0.4c0.6-0.4,1.2-1.1,1.7-1.7h0c-0.1,0.4-0.1,0.5-0.2,0.9
			c-0.1,0.3-0.1,0.6-0.1,0.8c0,0.3,0.1,0.4,0.3,0.4c0.3,0,1.1-0.5,1.5-1.1L80.5,29.7z M71.6,30.3c-0.2,0-0.3-0.2-0.3-0.7
			c0-1.1,0.4-2.3,1.2-2.9c0.2-0.1,0.5-0.2,0.8-0.2c0.3,0,0.6,0.1,0.7,0.2c-0.1,0.4-0.2,1.1-0.3,1.5C73.4,28.9,72.1,30.3,71.6,30.3z
			 M74.9,29.6c-0.3,0.3-0.7,0.6-0.8,0.6c-0.1,0-0.1-0.1,0-0.5c0.2-1.3,0.6-2.8,0.7-3.5l0,0c-0.1,0-0.3,0-0.4-0.1
			c-0.2,0-0.5-0.1-0.7-0.1c-0.6,0-1.4,0.3-1.9,0.8c-0.8,0.7-1.3,1.9-1.3,3c0,0.9,0.3,1.2,0.6,1.2c0.3,0,0.6-0.2,1-0.5
			c0.5-0.4,1-0.9,1.4-1.5h0l-0.2,1c-0.2,0.8,0,0.9,0.2,0.9c0.3,0,1-0.4,1.5-1.1L74.9,29.6z M70.4,26.2h-1.3l0.4-1.6l-0.1-0.1
			l-0.7,0.7l-0.3,1h-0.6l-0.3,0.3l0,0.1h0.8l-0.6,2.9c-0.2,1.1,0,1.4,0.2,1.4c0.6,0,1.4-0.7,1.7-1.1l-0.2-0.3
			c-0.3,0.3-0.8,0.7-1,0.7c-0.1,0-0.2-0.1-0.1-0.6l0.6-3l1.1-0.1L70.4,26.2z M64.4,31c0.9,0,1.9-0.8,1.9-1.6c0-0.5-0.2-0.8-0.9-1.3
			c-0.4-0.3-0.7-0.6-0.7-0.9c0-0.4,0.3-0.6,0.6-0.6c0.3,0,0.6,0.2,0.8,0.5c0.1,0.1,0.1,0.1,0.2,0c0.2-0.1,0.3-0.3,0.3-0.4
			c0-0.3-0.4-0.6-0.8-0.6c-0.3,0-0.9,0.2-1.2,0.5c-0.4,0.4-0.5,0.7-0.5,1c0,0.5,0.4,0.9,0.9,1.3c0.5,0.4,0.6,0.7,0.6,0.9
			c0,0.3-0.3,0.7-0.8,0.7c-0.4,0-0.8-0.2-1-0.6c-0.1-0.1-0.1-0.1-0.3,0c-0.2,0.1-0.3,0.3-0.3,0.4C63.4,30.6,63.9,31,64.4,31z
			 M61.8,26.5c0.3,0,0.6,0.2,0.6,0.6c0,0.5-0.5,1-2.1,1.4c0.2-1.2,0.7-1.7,1-1.8C61.5,26.6,61.7,26.5,61.8,26.5z M62.7,29.5
			c-0.5,0.5-1.1,0.8-1.6,0.8c-0.7,0-0.8-0.6-0.8-1.2c0-0.1,0-0.2,0-0.3c1-0.3,2.9-0.8,2.9-1.9c0-0.5-0.4-0.9-0.9-0.9
			c-0.5,0-1,0.2-1.5,0.6c-0.8,0.6-1.3,1.8-1.3,2.8c0,1.3,0.7,1.6,1.2,1.6c0.5,0,1.3-0.2,2.2-1.2L62.7,29.5z M54.9,27.5l0.5-2.7
			c0.1-0.3,0.1-0.4,0.2-0.5c0.1-0.1,0.3-0.1,0.5-0.1c0.9,0,1.3,0.5,1.3,1.4c0,0.7-0.3,1.2-0.8,1.6c-0.3,0.2-0.7,0.3-1.2,0.3
			L54.9,27.5L54.9,27.5z M58.8,30.7c-0.3-0.1-0.5-0.2-0.8-0.5c-0.2-0.3-0.4-0.6-0.7-1.1c-0.2-0.5-0.5-1.1-0.6-1.4
			c0.9-0.3,1.7-1,1.7-2.1c0-0.6-0.3-1.1-0.6-1.3c-0.4-0.3-0.9-0.3-1.5-0.3H54l-0.1,0.3c0.9,0.1,0.9,0.1,0.7,1l-0.8,4.3
			c-0.2,0.9-0.2,1-1.1,1.1l-0.1,0.3h2.7l0.1-0.3c-0.9-0.1-0.9-0.1-0.8-1.1l0.3-1.7h0.5c0.4,0,0.5,0.1,0.7,0.5
			c0.2,0.5,0.5,1.1,0.8,1.6c0.4,0.7,0.8,1,1.7,1h0.1L58.8,30.7z"/>
	</g>
</g>
</svg>
